<svg width="1920" height="1058" viewBox="0 0 1920 1058" fill="none" xmlns="http://www.w3.org/2000/svg">
<g id="Group">
<g id="Layer 1">
<g id="Group 2">
<path id="rectangle" d="M1934 -345H-87V1058H1934V-345Z" fill="url(#paint0_radial)"/>
<path id="Vector" d="M217.34 17.12C218.041 17.12 218.61 16.5514 218.61 15.85C218.61 15.1486 218.041 14.58 217.34 14.58C216.639 14.58 216.07 15.1486 216.07 15.85C216.07 16.5514 216.639 17.12 217.34 17.12Z" fill="white"/>
<path id="Vector 2" d="M258.37 3.13998C259.071 3.13998 259.64 2.57138 259.64 1.86998C259.64 1.16857 259.071 0.599976 258.37 0.599976C257.669 0.599976 257.1 1.16857 257.1 1.86998C257.1 2.57138 257.669 3.13998 258.37 3.13998Z" fill="white"/>
<path id="Vector 3" d="M242.49 25.1099C243.191 25.1099 243.76 24.5413 243.76 23.8399C243.76 23.1385 243.191 22.5699 242.49 22.5699C241.789 22.5699 241.22 23.1385 241.22 23.8399C241.22 24.5413 241.789 25.1099 242.49 25.1099Z" fill="white"/>
<path id="Vector 4" d="M110.77 72.66C112.04 72.66 113.07 71.6303 113.07 70.36C113.07 69.0897 112.04 68.06 110.77 68.06C109.5 68.06 108.47 69.0897 108.47 70.36C108.47 71.6303 109.5 72.66 110.77 72.66Z" fill="white"/>
<path id="Vector 5" d="M763.24 -2.23C763.24 -1.01 762.755 0.160032 761.893 1.0227C761.03 1.88536 759.86 2.37 758.64 2.37C758.036 2.37001 757.439 2.25095 756.881 2.01966C756.324 1.78836 755.817 1.44937 755.391 1.02209C754.964 0.594814 754.627 0.087635 754.396 -0.470404C754.166 -1.02845 754.049 -1.62639 754.05 -2.23C754.049 -2.83313 754.166 -3.43059 754.397 -3.98807C754.627 -4.54555 754.965 -5.05207 755.391 -5.47856C755.818 -5.90504 756.324 -6.24309 756.882 -6.47329C757.439 -6.70349 758.037 -6.82131 758.64 -6.82C759.244 -6.82131 759.842 -6.70356 760.4 -6.47348C760.958 -6.2434 761.465 -5.90551 761.892 -5.47916C762.319 -5.05281 762.658 -4.54636 762.89 -3.98883C763.121 -3.43129 763.24 -2.83361 763.24 -2.23Z" fill="white"/>
<path id="Vector 6" d="M362.3 7.57998C363.57 7.57998 364.6 6.55024 364.6 5.27998C364.6 4.00973 363.57 2.97998 362.3 2.97998C361.03 2.97998 360 4.00973 360 5.27998C360 6.55024 361.03 7.57998 362.3 7.57998Z" fill="white"/>
<path id="Vector 7" d="M29 212.49C29 212.945 28.8651 213.39 28.6123 213.768C28.3596 214.146 28.0004 214.441 27.5801 214.615C27.1599 214.789 26.6974 214.835 26.2513 214.746C25.8051 214.657 25.3953 214.438 25.0736 214.116C24.752 213.795 24.5329 213.385 24.4442 212.939C24.3554 212.493 24.401 212.03 24.575 211.61C24.7491 211.19 25.0439 210.83 25.4222 210.578C25.8004 210.325 26.2451 210.19 26.7 210.19C27.31 210.19 27.895 210.432 28.3263 210.864C28.7576 211.295 29 211.88 29 212.49Z" fill="white"/>
<path id="Vector 8" d="M343.08 134.91C343.08 135.365 342.945 135.81 342.692 136.188C342.44 136.566 342.08 136.861 341.66 137.035C341.24 137.209 340.777 137.255 340.331 137.166C339.885 137.077 339.475 136.858 339.154 136.536C338.832 136.215 338.613 135.805 338.524 135.359C338.435 134.913 338.481 134.45 338.655 134.03C338.829 133.61 339.124 133.25 339.502 132.998C339.88 132.745 340.325 132.61 340.78 132.61C341.39 132.61 341.975 132.852 342.406 133.284C342.838 133.715 343.08 134.3 343.08 134.91Z" fill="white"/>
<path id="Vector 9" d="M412.91 287.89C412.91 288.345 412.775 288.79 412.522 289.168C412.27 289.546 411.91 289.841 411.49 290.015C411.07 290.189 410.607 290.235 410.161 290.146C409.715 290.057 409.305 289.838 408.984 289.516C408.662 289.195 408.443 288.785 408.354 288.339C408.265 287.893 408.311 287.43 408.485 287.01C408.659 286.59 408.954 286.23 409.332 285.978C409.71 285.725 410.155 285.59 410.61 285.59C411.22 285.59 411.805 285.832 412.236 286.264C412.668 286.695 412.91 287.28 412.91 287.89Z" fill="white"/>
<path id="Vector 10" d="M247.64 275.47C247.64 275.925 247.505 276.37 247.252 276.748C247 277.126 246.64 277.421 246.22 277.595C245.8 277.769 245.337 277.815 244.891 277.726C244.445 277.637 244.035 277.418 243.714 277.096C243.392 276.775 243.173 276.365 243.084 275.919C242.995 275.473 243.041 275.01 243.215 274.59C243.389 274.17 243.684 273.81 244.062 273.558C244.44 273.305 244.885 273.17 245.34 273.17C245.642 273.17 245.941 273.229 246.22 273.345C246.499 273.461 246.753 273.63 246.966 273.844C247.18 274.057 247.349 274.311 247.465 274.59C247.58 274.869 247.64 275.168 247.64 275.47Z" fill="white"/>
<path id="Vector 11" d="M39.4399 13C39.4419 13.4553 39.3087 13.9009 39.0572 14.2805C38.8057 14.66 38.4472 14.9564 38.0271 15.132C37.607 15.3076 37.1442 15.3546 36.6974 15.267C36.2506 15.1794 35.8398 14.9611 35.5172 14.6398C35.1945 14.3186 34.9745 13.9088 34.8849 13.4624C34.7953 13.0159 34.8403 12.553 35.0141 12.1321C35.1879 11.7113 35.4827 11.3515 35.8611 11.0983C36.2395 10.8451 36.6846 10.71 37.1399 10.71C37.7482 10.71 38.3317 10.9509 38.7628 11.3801C39.1938 11.8092 39.4373 12.3917 39.4399 13Z" fill="white"/>
<path id="Vector 12" d="M276.94 353.92C276.942 354.376 276.808 354.822 276.556 355.202C276.305 355.581 275.945 355.878 275.525 356.053C275.104 356.228 274.641 356.275 274.194 356.186C273.747 356.098 273.336 355.879 273.014 355.556C272.691 355.234 272.472 354.823 272.384 354.376C272.295 353.929 272.342 353.466 272.517 353.045C272.692 352.624 272.989 352.265 273.368 352.013C273.748 351.761 274.194 351.628 274.65 351.63C275.256 351.633 275.837 351.875 276.266 352.304C276.695 352.732 276.937 353.313 276.94 353.92Z" fill="white"/>
<path id="Vector 13" d="M292.3 303.79C293.001 303.79 293.57 303.221 293.57 302.52C293.57 301.819 293.001 301.25 292.3 301.25C291.599 301.25 291.03 301.819 291.03 302.52C291.03 303.221 291.599 303.79 292.3 303.79Z" fill="white"/>
<path id="Vector 14" d="M362.27 261.43C362.971 261.43 363.54 260.861 363.54 260.16C363.54 259.459 362.971 258.89 362.27 258.89C361.569 258.89 361 259.459 361 260.16C361 260.861 361.569 261.43 362.27 261.43Z" fill="white"/>
<path id="Vector 15" d="M494.84 162.59C495.541 162.59 496.11 162.021 496.11 161.32C496.11 160.619 495.541 160.05 494.84 160.05C494.139 160.05 493.57 160.619 493.57 161.32C493.57 162.021 494.139 162.59 494.84 162.59Z" fill="white"/>
<path id="Vector 16" d="M333.34 289.82C334.041 289.82 334.61 289.251 334.61 288.55C334.61 287.849 334.041 287.28 333.34 287.28C332.639 287.28 332.07 287.849 332.07 288.55C332.07 289.251 332.639 289.82 333.34 289.82Z" fill="white"/>
<path id="Vector 17" d="M354.99 344.07C355.691 344.07 356.26 343.501 356.26 342.8C356.26 342.099 355.691 341.53 354.99 341.53C354.289 341.53 353.72 342.099 353.72 342.8C353.72 343.501 354.289 344.07 354.99 344.07Z" fill="white"/>
<path id="Vector 18" d="M439.21 343.75C439.911 343.75 440.48 343.181 440.48 342.48C440.48 341.779 439.911 341.21 439.21 341.21C438.509 341.21 437.94 341.779 437.94 342.48C437.94 343.181 438.509 343.75 439.21 343.75Z" fill="white"/>
<path id="Vector 19" d="M617.2 281.78C617.901 281.78 618.47 281.211 618.47 280.51C618.47 279.809 617.901 279.24 617.2 279.24C616.499 279.24 615.93 279.809 615.93 280.51C615.93 281.211 616.499 281.78 617.2 281.78Z" fill="white"/>
<path id="Vector 20" d="M317.46 311.78C318.161 311.78 318.73 311.211 318.73 310.51C318.73 309.809 318.161 309.24 317.46 309.24C316.759 309.24 316.19 309.809 316.19 310.51C316.19 311.211 316.759 311.78 317.46 311.78Z" fill="white"/>
<path id="Vector 21" d="M443.98 412.09C444.681 412.09 445.25 411.521 445.25 410.82C445.25 410.119 444.681 409.55 443.98 409.55C443.279 409.55 442.71 410.119 442.71 410.82C442.71 411.521 443.279 412.09 443.98 412.09Z" fill="white"/>
<path id="Vector 22" d="M319.25 273.63C319.497 273.678 319.723 273.799 319.901 273.976C320.08 274.153 320.201 274.379 320.251 274.625C320.3 274.872 320.276 275.127 320.18 275.36C320.085 275.592 319.922 275.791 319.714 275.931C319.505 276.071 319.259 276.146 319.008 276.146C318.757 276.147 318.511 276.073 318.302 275.933C318.093 275.794 317.93 275.596 317.833 275.364C317.737 275.132 317.711 274.877 317.76 274.63C317.791 274.466 317.854 274.31 317.946 274.17C318.038 274.031 318.157 273.911 318.296 273.818C318.434 273.725 318.59 273.661 318.754 273.628C318.918 273.596 319.086 273.597 319.25 273.63Z" fill="white"/>
<path id="Vector 23" d="M285.48 461.61C286.181 461.61 286.75 461.041 286.75 460.34C286.75 459.639 286.181 459.07 285.48 459.07C284.779 459.07 284.21 459.639 284.21 460.34C284.21 461.041 284.779 461.61 285.48 461.61Z" fill="white"/>
<path id="Vector 24" d="M241.23 167.47C241.931 167.47 242.5 166.901 242.5 166.2C242.5 165.499 241.931 164.93 241.23 164.93C240.529 164.93 239.96 165.499 239.96 166.2C239.96 166.901 240.529 167.47 241.23 167.47Z" fill="white"/>
<path id="Vector 25" d="M322.89 197.86C323.591 197.86 324.16 197.291 324.16 196.59C324.16 195.889 323.591 195.32 322.89 195.32C322.189 195.32 321.62 195.889 321.62 196.59C321.62 197.291 322.189 197.86 322.89 197.86Z" fill="white"/>
<path id="Vector 26" d="M151.57 191.19C152.271 191.19 152.84 190.621 152.84 189.92C152.84 189.219 152.271 188.65 151.57 188.65C150.869 188.65 150.3 189.219 150.3 189.92C150.3 190.621 150.869 191.19 151.57 191.19Z" fill="white"/>
<path id="Vector 27" d="M29.51 452.14C30.2114 452.14 30.78 451.571 30.78 450.87C30.78 450.169 30.2114 449.6 29.51 449.6C28.8086 449.6 28.24 450.169 28.24 450.87C28.24 451.571 28.8086 452.14 29.51 452.14Z" fill="white"/>
<path id="Vector 28" d="M124.24 444.19C124.941 444.19 125.51 443.621 125.51 442.92C125.51 442.219 124.941 441.65 124.24 441.65C123.539 441.65 122.97 442.219 122.97 442.92C122.97 443.621 123.539 444.19 124.24 444.19Z" fill="white"/>
<path id="Vector 29" d="M185.73 359.33C187 359.33 188.03 358.3 188.03 357.03C188.03 355.76 187 354.73 185.73 354.73C184.46 354.73 183.43 355.76 183.43 357.03C183.43 358.3 184.46 359.33 185.73 359.33Z" fill="white"/>
<path id="Vector 30" d="M142.74 543.92C142.74 544.375 142.605 544.82 142.352 545.198C142.1 545.576 141.74 545.871 141.32 546.045C140.9 546.219 140.437 546.265 139.991 546.176C139.545 546.087 139.135 545.868 138.814 545.546C138.492 545.225 138.273 544.815 138.184 544.369C138.095 543.923 138.141 543.46 138.315 543.04C138.489 542.62 138.784 542.26 139.162 542.008C139.54 541.755 139.985 541.62 140.44 541.62C141.05 541.62 141.635 541.862 142.066 542.294C142.498 542.725 142.74 543.31 142.74 543.92Z" fill="white"/>
<path id="Vector 31" d="M673.35 135.73C674.051 135.73 674.62 135.161 674.62 134.46C674.62 133.759 674.051 133.19 673.35 133.19C672.649 133.19 672.08 133.759 672.08 134.46C672.08 135.161 672.649 135.73 673.35 135.73Z" fill="white"/>
<path id="Vector 32" d="M828.27 3.13998C828.971 3.13998 829.54 2.57138 829.54 1.86998C829.54 1.16857 828.971 0.599976 828.27 0.599976C827.569 0.599976 827 1.16857 827 1.86998C827 2.57138 827.569 3.13998 828.27 3.13998Z" fill="white"/>
<path id="Vector 33" d="M812.39 25.1099C813.091 25.1099 813.66 24.5413 813.66 23.8399C813.66 23.1385 813.091 22.5699 812.39 22.5699C811.689 22.5699 811.12 23.1385 811.12 23.8399C811.12 24.5413 811.689 25.1099 812.39 25.1099Z" fill="white"/>
<path id="Vector 34" d="M484.61 4.24996C485.311 4.24996 485.88 3.68136 485.88 2.97996C485.88 2.27856 485.311 1.70996 484.61 1.70996C483.909 1.70996 483.34 2.27856 483.34 2.97996C483.34 3.68136 483.909 4.24996 484.61 4.24996Z" fill="white"/>
<path id="Vector 35" d="M683 70.36C683 70.8149 682.865 71.2596 682.612 71.6378C682.36 72.016 682 72.3108 681.58 72.4849C681.16 72.659 680.697 72.7046 680.251 72.6158C679.805 72.5271 679.395 72.308 679.074 71.9863C678.752 71.6647 678.533 71.2549 678.444 70.8087C678.355 70.3626 678.401 69.9001 678.575 69.4798C678.749 69.0596 679.044 68.7003 679.422 68.4476C679.8 68.1949 680.245 68.06 680.7 68.06C681.31 68.06 681.895 68.3023 682.326 68.7337C682.758 69.165 683 69.75 683 70.36Z" fill="white"/>
<path id="Vector 36" d="M1328.54 2.36998C1331.08 2.36998 1333.14 0.310496 1333.14 -2.23002C1333.14 -4.77053 1331.08 -6.83002 1328.54 -6.83002C1326 -6.83002 1323.94 -4.77053 1323.94 -2.23002C1323.94 0.310496 1326 2.36998 1328.54 2.36998Z" fill="white"/>
<path id="Vector 37" d="M598.92 212.49C598.92 212.945 598.785 213.39 598.532 213.769C598.278 214.147 597.919 214.442 597.498 214.616C597.077 214.79 596.614 214.835 596.168 214.745C595.721 214.655 595.311 214.435 594.99 214.113C594.669 213.79 594.451 213.379 594.363 212.933C594.275 212.486 594.322 212.023 594.498 211.603C594.674 211.183 594.97 210.824 595.349 210.573C595.729 210.321 596.175 210.188 596.63 210.19C596.932 210.19 597.23 210.25 597.509 210.365C597.787 210.481 598.04 210.651 598.253 210.864C598.466 211.078 598.634 211.332 598.748 211.611C598.863 211.89 598.921 212.188 598.92 212.49Z" fill="white"/>
<path id="Vector 38" d="M826.93 91.18C828.2 91.18 829.23 90.1502 829.23 88.88C829.23 87.6097 828.2 86.58 826.93 86.58C825.66 86.58 824.63 87.6097 824.63 88.88C824.63 90.1502 825.66 91.18 826.93 91.18Z" fill="white"/>
<path id="Vector 39" d="M1126.27 158.55C1127.54 158.55 1128.57 157.52 1128.57 156.25C1128.57 154.98 1127.54 153.95 1126.27 153.95C1125 153.95 1123.97 154.98 1123.97 156.25C1123.97 157.52 1125 158.55 1126.27 158.55Z" fill="white"/>
<path id="Vector 40" d="M817.54 275.47C817.54 275.925 817.405 276.37 817.152 276.748C816.9 277.126 816.541 277.421 816.12 277.595C815.7 277.769 815.238 277.815 814.791 277.726C814.345 277.637 813.935 277.418 813.614 277.096C813.292 276.775 813.073 276.365 812.984 275.919C812.896 275.473 812.941 275.01 813.115 274.59C813.289 274.17 813.584 273.81 813.962 273.558C814.34 273.305 814.785 273.17 815.24 273.17C815.542 273.17 815.841 273.229 816.12 273.345C816.399 273.461 816.653 273.63 816.866 273.844C817.08 274.057 817.249 274.311 817.365 274.59C817.481 274.869 817.54 275.168 817.54 275.47Z" fill="white"/>
<path id="Vector 41" d="M609.34 13C609.342 13.4553 609.209 13.9009 608.957 14.2805C608.706 14.66 608.347 14.9564 607.927 15.132C607.507 15.3076 607.044 15.3546 606.597 15.267C606.151 15.1794 605.74 14.9611 605.417 14.6398C605.095 14.3186 604.874 13.9088 604.785 13.4624C604.695 13.0159 604.74 12.553 604.914 12.1321C605.088 11.7113 605.383 11.3515 605.761 11.0983C606.14 10.8451 606.585 10.71 607.04 10.71C607.648 10.71 608.232 10.9509 608.663 11.3801C609.094 11.8092 609.337 12.3917 609.34 13Z" fill="white"/>
<path id="Vector 42" d="M795.8 340.24C795.8 340.695 795.665 341.14 795.412 341.518C795.16 341.896 794.801 342.191 794.38 342.365C793.96 342.539 793.497 342.585 793.051 342.496C792.605 342.407 792.195 342.188 791.874 341.866C791.552 341.545 791.333 341.135 791.244 340.689C791.156 340.243 791.201 339.78 791.375 339.36C791.549 338.94 791.844 338.58 792.222 338.328C792.6 338.075 793.045 337.94 793.5 337.94C794.11 337.94 794.695 338.182 795.126 338.614C795.558 339.045 795.8 339.63 795.8 340.24Z" fill="white"/>
<path id="Vector 43" d="M862.19 303.79C862.891 303.79 863.46 303.221 863.46 302.52C863.46 301.819 862.891 301.25 862.19 301.25C861.489 301.25 860.92 301.819 860.92 302.52C860.92 303.221 861.489 303.79 862.19 303.79Z" fill="white"/>
<path id="Vector 44" d="M932.17 261.43C932.871 261.43 933.44 260.861 933.44 260.16C933.44 259.459 932.871 258.89 932.17 258.89C931.469 258.89 930.9 259.459 930.9 260.16C930.9 260.861 931.469 261.43 932.17 261.43Z" fill="white"/>
<path id="Vector 45" d="M1064.73 162.59C1065.43 162.59 1066 162.021 1066 161.32C1066 160.619 1065.43 160.05 1064.73 160.05C1064.03 160.05 1063.46 160.619 1063.46 161.32C1063.46 162.021 1064.03 162.59 1064.73 162.59Z" fill="white"/>
<path id="Vector 46" d="M1041.7 87.54C1042.4 87.54 1042.97 86.9714 1042.97 86.27C1042.97 85.5686 1042.4 85 1041.7 85C1041 85 1040.43 85.5686 1040.43 86.27C1040.43 86.9714 1041 87.54 1041.7 87.54Z" fill="white"/>
<path id="Vector 47" d="M924.88 344.07C925.581 344.07 926.15 343.501 926.15 342.8C926.15 342.099 925.581 341.53 924.88 341.53C924.179 341.53 923.61 342.099 923.61 342.8C923.61 343.501 924.179 344.07 924.88 344.07Z" fill="white"/>
<path id="Vector 48" d="M1191.34 60.18C1192.04 60.18 1192.61 59.6114 1192.61 58.91C1192.61 58.2086 1192.04 57.64 1191.34 57.64C1190.64 57.64 1190.07 58.2086 1190.07 58.91C1190.07 59.6114 1190.64 60.18 1191.34 60.18Z" fill="white"/>
<path id="Vector 49" d="M1187.1 281.78C1187.8 281.78 1188.37 281.211 1188.37 280.51C1188.37 279.809 1187.8 279.24 1187.1 279.24C1186.4 279.24 1185.83 279.809 1185.83 280.51C1185.83 281.211 1186.4 281.78 1187.1 281.78Z" fill="white"/>
<path id="Vector 50" d="M676.27 534.54C676.971 534.54 677.54 533.971 677.54 533.27C677.54 532.569 676.971 532 676.27 532C675.569 532 675 532.569 675 533.27C675 533.971 675.569 534.54 676.27 534.54Z" fill="white"/>
<path id="Vector 51" d="M932.47 430.23C933.171 430.23 933.74 429.661 933.74 428.96C933.74 428.259 933.171 427.69 932.47 427.69C931.769 427.69 931.2 428.259 931.2 428.96C931.2 429.661 931.769 430.23 932.47 430.23Z" fill="white"/>
<path id="Vector 52" d="M1013.88 412.09C1014.58 412.09 1015.15 411.521 1015.15 410.82C1015.15 410.119 1014.58 409.55 1013.88 409.55C1013.18 409.55 1012.61 410.119 1012.61 410.82C1012.61 411.521 1013.18 412.09 1013.88 412.09Z" fill="white"/>
<path id="Vector 53" d="M1052.13 392.16C1052.83 392.16 1053.4 391.591 1053.4 390.89C1053.4 390.189 1052.83 389.62 1052.13 389.62C1051.43 389.62 1050.86 390.189 1050.86 390.89C1050.86 391.591 1051.43 392.16 1052.13 392.16Z" fill="white"/>
<path id="Vector 54" d="M1044.85 367.92C1045.55 367.92 1046.12 367.351 1046.12 366.65C1046.12 365.949 1045.55 365.38 1044.85 365.38C1044.15 365.38 1043.58 365.949 1043.58 366.65C1043.58 367.351 1044.15 367.92 1044.85 367.92Z" fill="white"/>
<path id="Vector 55" d="M889.15 273.63C889.396 273.68 889.621 273.802 889.798 273.98C889.974 274.158 890.094 274.384 890.143 274.63C890.191 274.876 890.165 275.131 890.069 275.363C889.972 275.594 889.809 275.792 889.601 275.931C889.392 276.07 889.147 276.144 888.896 276.144C888.645 276.144 888.4 276.07 888.192 275.931C887.983 275.792 887.82 275.594 887.724 275.362C887.627 275.131 887.602 274.876 887.65 274.63C887.682 274.466 887.747 274.309 887.84 274.17C887.933 274.03 888.052 273.911 888.192 273.818C888.331 273.725 888.488 273.66 888.652 273.628C888.817 273.596 888.986 273.596 889.15 273.63Z" fill="white"/>
<path id="Vector 56" d="M760.71 523.92C761.411 523.92 761.98 523.351 761.98 522.65C761.98 521.949 761.411 521.38 760.71 521.38C760.009 521.38 759.44 521.949 759.44 522.65C759.44 523.351 760.009 523.92 760.71 523.92Z" fill="white"/>
<path id="Vector 57" d="M811.12 167.47C811.821 167.47 812.39 166.901 812.39 166.2C812.39 165.499 811.821 164.93 811.12 164.93C810.419 164.93 809.85 165.499 809.85 166.2C809.85 166.901 810.419 167.47 811.12 167.47Z" fill="white"/>
<path id="Vector 58" d="M892.78 197.86C893.481 197.86 894.05 197.291 894.05 196.59C894.05 195.889 893.481 195.32 892.78 195.32C892.079 195.32 891.51 195.889 891.51 196.59C891.51 197.291 892.079 197.86 892.78 197.86Z" fill="white"/>
<path id="Vector 59" d="M1598 71.1C1598.7 71.1 1599.27 70.5314 1599.27 69.83C1599.27 69.1286 1598.7 68.56 1598 68.56C1597.3 68.56 1596.73 69.1286 1596.73 69.83C1596.73 70.5314 1597.3 71.1 1598 71.1Z" fill="white"/>
<path id="Vector 60" d="M1667.97 28.74C1668.67 28.74 1669.24 28.1714 1669.24 27.4699C1669.24 26.7685 1668.67 26.2 1667.97 26.2C1667.27 26.2 1666.7 26.7685 1666.7 27.4699C1666.7 28.1714 1667.27 28.74 1667.97 28.74Z" fill="white"/>
<path id="Vector 61" d="M1660.68 111.38C1661.38 111.38 1661.95 110.811 1661.95 110.11C1661.95 109.409 1661.38 108.84 1660.68 108.84C1659.98 108.84 1659.41 109.409 1659.41 110.11C1659.41 110.811 1659.98 111.38 1660.68 111.38Z" fill="white"/>
<path id="Vector 62" d="M1625 40.94C1625.25 40.9901 1625.47 41.1118 1625.65 41.2898C1625.82 41.4678 1625.94 41.6941 1625.99 41.9402C1626.04 42.1863 1626.02 42.4412 1625.92 42.6727C1625.82 42.9042 1625.66 43.102 1625.45 43.2411C1625.24 43.3802 1625 43.4544 1624.75 43.4544C1624.5 43.4543 1624.25 43.3801 1624.04 43.2409C1623.83 43.1018 1623.67 42.904 1623.57 42.6724C1623.48 42.4409 1623.45 42.1861 1623.5 41.94C1623.53 41.7755 1623.6 41.6191 1623.69 41.4797C1623.78 41.3403 1623.9 41.2206 1624.04 41.1277C1624.18 41.0347 1624.34 40.9703 1624.5 40.9381C1624.67 40.9058 1624.84 40.9065 1625 40.94Z" fill="white"/>
<path id="Vector 63" d="M721.46 191.19C722.161 191.19 722.73 190.621 722.73 189.92C722.73 189.219 722.161 188.65 721.46 188.65C720.759 188.65 720.19 189.219 720.19 189.92C720.19 190.621 720.759 191.19 721.46 191.19Z" fill="white"/>
<path id="Vector 64" d="M1790.02 38.81C1791.29 38.81 1792.32 37.7802 1792.32 36.51C1792.32 35.2397 1791.29 34.21 1790.02 34.21C1788.75 34.21 1787.72 35.2397 1787.72 36.51C1787.72 37.7802 1788.75 38.81 1790.02 38.81Z" fill="white"/>
<path id="Vector 65" d="M1733.73 149C1733.73 149.455 1733.6 149.901 1733.35 150.28C1733.1 150.66 1732.74 150.956 1732.32 151.132C1731.9 151.308 1731.43 151.355 1730.99 151.267C1730.54 151.179 1730.13 150.961 1729.81 150.64C1729.48 150.319 1729.26 149.909 1729.17 149.462C1729.09 149.016 1729.13 148.553 1729.3 148.132C1729.48 147.711 1729.77 147.351 1730.15 147.098C1730.53 146.845 1730.97 146.71 1731.43 146.71C1732.04 146.71 1732.62 146.951 1733.05 147.38C1733.48 147.809 1733.73 148.392 1733.73 149Z" fill="white"/>
<path id="Vector 66" d="M1836.98 64.84C1837.68 64.84 1838.25 64.2714 1838.25 63.57C1838.25 62.8686 1837.68 62.3 1836.98 62.3C1836.28 62.3 1835.71 62.8686 1835.71 63.57C1835.71 64.2714 1836.28 64.84 1836.98 64.84Z" fill="white"/>
<path id="Vector 67" d="M1863.93 34.67C1864.09 34.7022 1864.25 34.7667 1864.39 34.8597C1864.53 34.9527 1864.65 35.0723 1864.74 35.2118C1864.84 35.3512 1864.9 35.5077 1864.93 35.6721C1864.96 35.8366 1864.96 36.0058 1864.93 36.17C1864.9 36.334 1864.84 36.4903 1864.74 36.6296C1864.65 36.769 1864.53 36.8886 1864.39 36.9817C1864.26 37.0747 1864.1 37.1393 1863.94 37.1716C1863.77 37.2039 1863.6 37.2034 1863.44 37.17C1863.28 37.1377 1863.12 37.0733 1862.98 36.9803C1862.84 36.8873 1862.72 36.7676 1862.63 36.6282C1862.53 36.4888 1862.47 36.3323 1862.44 36.1679C1862.41 36.0034 1862.41 35.8342 1862.44 35.67C1862.47 35.5059 1862.53 35.3497 1862.63 35.2104C1862.72 35.071 1862.84 34.9514 1862.98 34.8583C1863.11 34.7653 1863.27 34.7007 1863.43 34.6684C1863.6 34.636 1863.77 34.6366 1863.93 34.67Z" fill="white"/>
<path id="Vector 68" d="M599.41 452.14C600.111 452.14 600.68 451.571 600.68 450.87C600.68 450.169 600.111 449.6 599.41 449.6C598.709 449.6 598.14 450.169 598.14 450.87C598.14 451.571 598.709 452.14 599.41 452.14Z" fill="white"/>
<path id="Vector 69" d="M694.13 444.19C694.831 444.19 695.4 443.621 695.4 442.92C695.4 442.219 694.831 441.65 694.13 441.65C693.429 441.65 692.86 442.219 692.86 442.92C692.86 443.621 693.429 444.19 694.13 444.19Z" fill="white"/>
<path id="Vector 70" d="M543.21 403.84C544.48 403.84 545.51 402.81 545.51 401.54C545.51 400.27 544.48 399.24 543.21 399.24C541.94 399.24 540.91 400.27 540.91 401.54C540.91 402.81 541.94 403.84 543.21 403.84Z" fill="white"/>
<path id="Vector 71" d="M634.01 572.72C635.28 572.72 636.31 571.69 636.31 570.42C636.31 569.15 635.28 568.12 634.01 568.12C632.74 568.12 631.71 569.15 631.71 570.42C631.71 571.69 632.74 572.72 634.01 572.72Z" fill="white"/>
<path id="Vector 72" d="M1641.38 297.39C1642.08 297.39 1642.65 296.821 1642.65 296.12C1642.65 295.419 1642.08 294.85 1641.38 294.85C1640.68 294.85 1640.11 295.419 1640.11 296.12C1640.11 296.821 1640.68 297.39 1641.38 297.39Z" fill="white"/>
<path id="Vector 73" d="M1841.72 291.09C1841.72 291.545 1841.59 291.99 1841.33 292.368C1841.08 292.746 1840.72 293.041 1840.3 293.215C1839.88 293.389 1839.42 293.435 1838.97 293.346C1838.53 293.257 1838.12 293.038 1837.79 292.716C1837.47 292.395 1837.25 291.985 1837.16 291.539C1837.08 291.093 1837.12 290.63 1837.3 290.21C1837.47 289.79 1837.76 289.43 1838.14 289.178C1838.52 288.925 1838.97 288.79 1839.42 288.79C1840.03 288.79 1840.62 289.032 1841.05 289.464C1841.48 289.895 1841.72 290.48 1841.72 291.09Z" fill="white"/>
<path id="Vector 74" d="M1780.83 405.83C1782.1 405.83 1783.13 404.8 1783.13 403.53C1783.13 402.26 1782.1 401.23 1780.83 401.23C1779.56 401.23 1778.53 402.26 1778.53 403.53C1778.53 404.8 1779.56 405.83 1780.83 405.83Z" fill="white"/>
<path id="Vector 75" d="M1623.59 467.75C1624.29 467.75 1624.86 467.181 1624.86 466.48C1624.86 465.779 1624.29 465.21 1623.59 465.21C1622.89 465.21 1622.32 465.779 1622.32 466.48C1622.32 467.181 1622.89 467.75 1623.59 467.75Z" fill="white"/>
<path id="Vector 76" d="M1718.31 459.81C1719.01 459.81 1719.58 459.241 1719.58 458.54C1719.58 457.839 1719.01 457.27 1718.31 457.27C1717.61 457.27 1717.04 457.839 1717.04 458.54C1717.04 459.241 1717.61 459.81 1718.31 459.81Z" fill="white"/>
<path id="Vector 77" d="M1660.48 586C1660.48 586.455 1660.34 586.9 1660.09 587.279C1659.84 587.657 1659.48 587.952 1659.06 588.126C1658.64 588.3 1658.17 588.345 1657.73 588.255C1657.28 588.166 1656.87 587.945 1656.55 587.623C1656.23 587.3 1656.01 586.889 1655.92 586.443C1655.84 585.996 1655.88 585.533 1656.06 585.113C1656.23 584.693 1656.53 584.334 1656.91 584.083C1657.29 583.831 1657.73 583.698 1658.19 583.7C1658.49 583.7 1658.79 583.76 1659.07 583.875C1659.35 583.991 1659.6 584.161 1659.81 584.374C1660.03 584.588 1660.19 584.842 1660.31 585.121C1660.42 585.4 1660.48 585.698 1660.48 586Z" fill="white"/>
<path id="Vector 78" d="M1304.82 68.88C1304.82 69.3348 1304.69 69.7795 1304.43 70.1578C1304.18 70.536 1303.82 70.8308 1303.4 71.0049C1302.98 71.179 1302.52 71.2245 1302.07 71.1358C1301.63 71.047 1301.22 70.828 1300.89 70.5063C1300.57 70.1846 1300.35 69.7748 1300.26 69.3287C1300.18 68.8825 1300.22 68.42 1300.4 67.9998C1300.57 67.5795 1300.86 67.2203 1301.24 66.9676C1301.62 66.7148 1302.07 66.58 1302.52 66.58C1303.13 66.58 1303.72 66.8223 1304.15 67.2536C1304.58 67.6849 1304.82 68.27 1304.82 68.88Z" fill="white"/>
<path id="Vector 79" d="M1235.59 215.81C1236.29 215.81 1236.86 215.241 1236.86 214.54C1236.86 213.839 1236.29 213.27 1235.59 213.27C1234.89 213.27 1234.32 213.839 1234.32 214.54C1234.32 215.241 1234.89 215.81 1235.59 215.81Z" fill="white"/>
<path id="Vector 80" d="M1419.45 54.84C1420.15 54.84 1420.72 54.2714 1420.72 53.57C1420.72 52.8686 1420.15 52.3 1419.45 52.3C1418.75 52.3 1418.18 52.8686 1418.18 53.57C1418.18 54.2714 1418.75 54.84 1419.45 54.84Z" fill="white"/>
<path id="Vector 81" d="M1374.63 105.19C1375.33 105.19 1375.9 104.621 1375.9 103.92C1375.9 103.219 1375.33 102.65 1374.63 102.65C1373.93 102.65 1373.36 103.219 1373.36 103.92C1373.36 104.621 1373.93 105.19 1374.63 105.19Z" fill="white"/>
<path id="Vector 82" d="M1074.59 62.53C1074.34 62.5665 1074.09 62.5288 1073.86 62.4215C1073.63 62.3143 1073.45 62.1423 1073.32 61.9272C1073.19 61.7122 1073.12 61.4637 1073.14 61.2132C1073.15 60.9627 1073.23 60.7213 1073.38 60.5195C1073.53 60.3176 1073.74 60.1644 1073.97 60.0792C1074.21 59.9939 1074.46 59.9804 1074.71 60.0404C1074.95 60.1003 1075.17 60.231 1075.34 60.416C1075.51 60.6011 1075.62 60.8321 1075.66 61.08C1075.71 61.4139 1075.62 61.7536 1075.42 62.0252C1075.22 62.2967 1074.92 62.4782 1074.59 62.53Z" fill="white"/>
<path id="Vector 83" d="M1245.21 150.44C1245.21 150.895 1245.08 151.34 1244.82 151.718C1244.57 152.096 1244.21 152.391 1243.79 152.565C1243.37 152.739 1242.91 152.785 1242.46 152.696C1242.02 152.607 1241.61 152.388 1241.28 152.066C1240.96 151.745 1240.74 151.335 1240.65 150.889C1240.57 150.443 1240.61 149.98 1240.79 149.56C1240.96 149.14 1241.25 148.78 1241.63 148.528C1242.01 148.275 1242.46 148.14 1242.91 148.14C1243.52 148.14 1244.11 148.382 1244.54 148.814C1244.97 149.245 1245.21 149.83 1245.21 150.44Z" fill="white"/>
<path id="Vector 84" d="M1545 69.74C1545 70.1949 1544.87 70.6396 1544.61 71.0178C1544.36 71.396 1544 71.6908 1543.58 71.8649C1543.16 72.039 1542.7 72.0845 1542.25 71.9958C1541.81 71.9071 1541.4 71.688 1541.07 71.3663C1540.75 71.0447 1540.53 70.6349 1540.44 70.1887C1540.36 69.7425 1540.4 69.2801 1540.58 68.8598C1540.75 68.4396 1541.04 68.0803 1541.42 67.8276C1541.8 67.5749 1542.25 67.44 1542.7 67.44C1543.31 67.44 1543.89 67.6823 1544.33 68.1137C1544.76 68.545 1545 69.13 1545 69.74Z" fill="white"/>
<path id="Vector 85" d="M1161.16 292.57C1161.16 293.025 1161.03 293.47 1160.77 293.848C1160.52 294.226 1160.16 294.521 1159.74 294.695C1159.32 294.869 1158.86 294.915 1158.41 294.826C1157.97 294.737 1157.56 294.518 1157.23 294.196C1156.91 293.875 1156.69 293.465 1156.6 293.019C1156.52 292.573 1156.56 292.11 1156.74 291.69C1156.91 291.27 1157.2 290.91 1157.58 290.658C1157.96 290.405 1158.41 290.27 1158.86 290.27C1159.47 290.27 1160.06 290.512 1160.49 290.944C1160.92 291.375 1161.16 291.96 1161.16 292.57Z" fill="white"/>
<path id="Vector 86" d="M1690.81 236.33C1690.81 236.785 1690.68 237.23 1690.42 237.608C1690.17 237.986 1689.81 238.281 1689.39 238.455C1688.97 238.629 1688.51 238.675 1688.06 238.586C1687.62 238.497 1687.21 238.278 1686.88 237.956C1686.56 237.635 1686.34 237.225 1686.25 236.779C1686.17 236.333 1686.21 235.87 1686.39 235.45C1686.56 235.03 1686.85 234.67 1687.23 234.418C1687.61 234.165 1688.06 234.03 1688.51 234.03C1689.12 234.03 1689.7 234.272 1690.14 234.704C1690.57 235.135 1690.81 235.72 1690.81 236.33Z" fill="white"/>
<path id="Vector 87" d="M1433.11 177.07C1434.38 177.07 1435.41 176.04 1435.41 174.77C1435.41 173.5 1434.38 172.47 1433.11 172.47C1431.84 172.47 1430.81 173.5 1430.81 174.77C1430.81 176.04 1431.84 177.07 1433.11 177.07Z" fill="white"/>
<path id="Vector 88" d="M1169.28 95.34C1170.55 95.34 1171.58 94.3102 1171.58 93.04C1171.58 91.7697 1170.55 90.74 1169.28 90.74C1168.01 90.74 1166.98 91.7697 1166.98 93.04C1166.98 94.3102 1168.01 95.34 1169.28 95.34Z" fill="white"/>
<path id="Vector 89" d="M1321.19 468C1321.19 468.455 1321.06 468.901 1320.81 469.28C1320.56 469.66 1320.2 469.956 1319.78 470.132C1319.36 470.308 1318.89 470.355 1318.45 470.267C1318 470.179 1317.59 469.961 1317.27 469.64C1316.94 469.319 1316.72 468.909 1316.64 468.462C1316.55 468.016 1316.59 467.553 1316.76 467.132C1316.94 466.711 1317.23 466.351 1317.61 466.098C1317.99 465.845 1318.43 465.71 1318.89 465.71C1319.5 465.71 1320.08 465.951 1320.51 466.38C1320.94 466.809 1321.19 467.392 1321.19 468Z" fill="white"/>
<path id="Vector 90" d="M1424.43 383.88C1425.13 383.88 1425.7 383.311 1425.7 382.61C1425.7 381.909 1425.13 381.34 1424.43 381.34C1423.73 381.34 1423.16 381.909 1423.16 382.61C1423.16 383.311 1423.73 383.88 1424.43 383.88Z" fill="white"/>
<path id="Vector 91" d="M1494.41 341.51C1495.11 341.51 1495.68 340.941 1495.68 340.24C1495.68 339.539 1495.11 338.97 1494.41 338.97C1493.71 338.97 1493.14 339.539 1493.14 340.24C1493.14 340.941 1493.71 341.51 1494.41 341.51Z" fill="white"/>
<path id="Vector 92" d="M1626.97 242.67C1627.67 242.67 1628.24 242.101 1628.24 241.4C1628.24 240.699 1627.67 240.13 1626.97 240.13C1626.27 240.13 1625.7 240.699 1625.7 241.4C1625.7 242.101 1626.27 242.67 1626.97 242.67Z" fill="white"/>
<path id="Vector 93" d="M1577.64 179.12C1578.34 179.12 1578.91 178.551 1578.91 177.85C1578.91 177.149 1578.34 176.58 1577.64 176.58C1576.94 176.58 1576.37 177.149 1576.37 177.85C1576.37 178.551 1576.94 179.12 1577.64 179.12Z" fill="white"/>
<path id="Vector 94" d="M1216.7 795.15C1217.97 795.15 1219 794.12 1219 792.85C1219 791.58 1217.97 790.55 1216.7 790.55C1215.43 790.55 1214.4 791.58 1214.4 792.85C1214.4 794.12 1215.43 795.15 1216.7 795.15Z" fill="white"/>
<path id="Vector 95" d="M1457.14 721.36C1458.41 721.36 1459.44 720.33 1459.44 719.06C1459.44 717.79 1458.41 716.76 1457.14 716.76C1455.87 716.76 1454.84 717.79 1454.84 719.06C1454.84 720.33 1455.87 721.36 1457.14 721.36Z" fill="white"/>
<path id="Vector 96" d="M1295.02 770.67C1295.72 770.67 1296.29 770.101 1296.29 769.4C1296.29 768.699 1295.72 768.13 1295.02 768.13C1294.32 768.13 1293.75 768.699 1293.75 769.4C1293.75 770.101 1294.32 770.67 1295.02 770.67Z" fill="white"/>
<path id="Vector 97" d="M1362.98 669.99C1363.68 669.99 1364.25 669.421 1364.25 668.72C1364.25 668.019 1363.68 667.45 1362.98 667.45C1362.28 667.45 1361.71 668.019 1361.71 668.72C1361.71 669.421 1362.28 669.99 1362.98 669.99Z" fill="white"/>
<path id="Vector 98" d="M1432.09 665.4C1432.79 665.4 1433.36 664.831 1433.36 664.13C1433.36 663.429 1432.79 662.86 1432.09 662.86C1431.39 662.86 1430.82 663.429 1430.82 664.13C1430.82 664.831 1431.39 665.4 1432.09 665.4Z" fill="white"/>
<path id="Vector 99" d="M1132.8 686.22C1133.5 686.22 1134.07 685.651 1134.07 684.95C1134.07 684.249 1133.5 683.68 1132.8 683.68C1132.1 683.68 1131.53 684.249 1131.53 684.95C1131.53 685.651 1132.1 686.22 1132.8 686.22Z" fill="white"/>
<path id="Vector 100" d="M1753.58 140.27C1754.28 140.27 1754.85 139.701 1754.85 139C1754.85 138.299 1754.28 137.73 1753.58 137.73C1752.88 137.73 1752.31 138.299 1752.31 139C1752.31 139.701 1752.88 140.27 1753.58 140.27Z" fill="white"/>
<path id="Vector 101" d="M1749.34 361.86C1750.04 361.86 1750.61 361.291 1750.61 360.59C1750.61 359.889 1750.04 359.32 1749.34 359.32C1748.64 359.32 1748.07 359.889 1748.07 360.59C1748.07 361.291 1748.64 361.86 1749.34 361.86Z" fill="white"/>
<path id="Vector 102" d="M1370.95 768.24C1371.65 768.24 1372.22 767.671 1372.22 766.97C1372.22 766.269 1371.65 765.7 1370.95 765.7C1370.25 765.7 1369.68 766.269 1369.68 766.97C1369.68 767.671 1370.25 768.24 1370.95 768.24Z" fill="white"/>
<path id="Vector 103" d="M1521.92 677.09C1522.62 677.09 1523.19 676.521 1523.19 675.82C1523.19 675.119 1522.62 674.55 1521.92 674.55C1521.22 674.55 1520.65 675.119 1520.65 675.82C1520.65 676.521 1521.22 677.09 1521.92 677.09Z" fill="white"/>
<path id="Vector 104" d="M1451.39 353.71C1451.64 353.76 1451.86 353.882 1452.04 354.06C1452.21 354.238 1452.33 354.464 1452.38 354.71C1452.43 354.956 1452.4 355.211 1452.31 355.443C1452.21 355.674 1452.05 355.872 1451.84 356.011C1451.63 356.15 1451.39 356.224 1451.14 356.224C1450.89 356.224 1450.64 356.15 1450.43 356.011C1450.22 355.872 1450.06 355.674 1449.96 355.442C1449.87 355.211 1449.84 354.956 1449.89 354.71C1449.92 354.546 1449.99 354.389 1450.08 354.25C1450.17 354.11 1450.29 353.991 1450.43 353.898C1450.57 353.805 1450.73 353.74 1450.89 353.708C1451.06 353.676 1451.23 353.677 1451.39 353.71Z" fill="white"/>
<path id="Vector 105" d="M1425.61 560C1425.86 560.05 1426.08 560.172 1426.26 560.35C1426.43 560.528 1426.55 560.754 1426.6 561C1426.65 561.246 1426.63 561.501 1426.53 561.733C1426.43 561.964 1426.27 562.162 1426.06 562.301C1425.85 562.44 1425.61 562.514 1425.36 562.514C1425.11 562.514 1424.86 562.44 1424.65 562.301C1424.44 562.162 1424.28 561.964 1424.18 561.732C1424.09 561.501 1424.06 561.246 1424.11 561C1424.14 560.836 1424.21 560.679 1424.3 560.54C1424.39 560.4 1424.51 560.281 1424.65 560.188C1424.79 560.095 1424.95 560.03 1425.11 559.998C1425.28 559.966 1425.45 559.967 1425.61 560Z" fill="white"/>
<path id="Vector 106" d="M1307.2 668C1307.9 668 1308.47 667.431 1308.47 666.73C1308.47 666.029 1307.9 665.46 1307.2 665.46C1306.5 665.46 1305.93 666.029 1305.93 666.73C1305.93 667.431 1306.5 668 1307.2 668Z" fill="white"/>
<path id="Vector 107" d="M1373.36 247.56C1374.06 247.56 1374.63 246.991 1374.63 246.29C1374.63 245.589 1374.06 245.02 1373.36 245.02C1372.66 245.02 1372.09 245.589 1372.09 246.29C1372.09 246.991 1372.66 247.56 1373.36 247.56Z" fill="white"/>
<path id="Vector 108" d="M1456.29 276.68C1456.29 276.931 1456.21 277.175 1456.07 277.383C1455.93 277.59 1455.73 277.752 1455.5 277.846C1455.27 277.941 1455.01 277.964 1454.77 277.914C1454.52 277.864 1454.3 277.742 1454.12 277.564C1453.94 277.386 1453.82 277.16 1453.77 276.914C1453.73 276.668 1453.75 276.413 1453.85 276.182C1453.94 275.95 1454.11 275.752 1454.32 275.613C1454.52 275.474 1454.77 275.4 1455.02 275.4C1455.19 275.4 1455.35 275.433 1455.51 275.498C1455.66 275.562 1455.8 275.656 1455.92 275.775C1456.04 275.894 1456.13 276.036 1456.2 276.191C1456.26 276.346 1456.29 276.512 1456.29 276.68Z" fill="white"/>
<path id="Vector 109" d="M1283.7 271.27C1284.4 271.27 1284.97 270.701 1284.97 270C1284.97 269.299 1284.4 268.73 1283.7 268.73C1283 268.73 1282.43 269.299 1282.43 270C1282.43 270.701 1283 271.27 1283.7 271.27Z" fill="white"/>
<path id="Vector 110" d="M1499.24 487.29C1499.94 487.29 1500.51 486.721 1500.51 486.02C1500.51 485.319 1499.94 484.75 1499.24 484.75C1498.54 484.75 1497.97 485.319 1497.97 486.02C1497.97 486.721 1498.54 487.29 1499.24 487.29Z" fill="white"/>
<path id="Vector 111" d="M1584.83 739.47C1584.83 739.925 1584.69 740.37 1584.44 740.749C1584.19 741.127 1583.83 741.422 1583.41 741.596C1582.99 741.77 1582.52 741.815 1582.08 741.725C1581.63 741.635 1581.22 741.415 1580.9 741.093C1580.58 740.77 1580.36 740.359 1580.27 739.912C1580.19 739.466 1580.23 739.003 1580.41 738.583C1580.58 738.163 1580.88 737.804 1581.26 737.553C1581.64 737.301 1582.08 737.168 1582.54 737.17C1582.84 737.17 1583.14 737.23 1583.42 737.345C1583.7 737.461 1583.95 737.63 1584.16 737.844C1584.38 738.058 1584.54 738.312 1584.66 738.591C1584.77 738.87 1584.83 739.168 1584.83 739.47Z" fill="white"/>
<path id="Vector 112" d="M1688.08 655.36C1688.78 655.36 1689.35 654.791 1689.35 654.09C1689.35 653.389 1688.78 652.82 1688.08 652.82C1687.38 652.82 1686.81 653.389 1686.81 654.09C1686.81 654.791 1687.38 655.36 1688.08 655.36Z" fill="white"/>
<path id="Vector 113" d="M1758.06 612.99C1758.76 612.99 1759.33 612.421 1759.33 611.72C1759.33 611.019 1758.76 610.45 1758.06 610.45C1757.36 610.45 1756.79 611.019 1756.79 611.72C1756.79 612.421 1757.36 612.99 1758.06 612.99Z" fill="white"/>
<path id="Vector 114" d="M1845.96 470.18C1846.66 470.18 1847.23 469.611 1847.23 468.91C1847.23 468.209 1846.66 467.64 1845.96 467.64C1845.26 467.64 1844.69 468.209 1844.69 468.91C1844.69 469.611 1845.26 470.18 1845.96 470.18Z" fill="white"/>
<path id="Vector 115" d="M1715 625.19C1715.25 625.24 1715.47 625.362 1715.65 625.54C1715.82 625.718 1715.94 625.944 1715.99 626.19C1716.04 626.436 1716.02 626.691 1715.92 626.923C1715.82 627.154 1715.66 627.352 1715.45 627.491C1715.24 627.63 1715 627.704 1714.75 627.704C1714.5 627.704 1714.25 627.63 1714.04 627.491C1713.83 627.352 1713.67 627.154 1713.57 626.922C1713.48 626.691 1713.45 626.436 1713.5 626.19C1713.57 625.859 1713.76 625.568 1714.04 625.381C1714.33 625.194 1714.67 625.125 1715 625.19Z" fill="white"/>
<path id="Vector 116" d="M1303.7 36.45C1304.4 36.45 1304.97 35.8814 1304.97 35.18C1304.97 34.4786 1304.4 33.91 1303.7 33.91C1303 33.91 1302.43 34.4786 1302.43 35.18C1302.43 35.8814 1303 36.45 1303.7 36.45Z" fill="white"/>
<path id="Vector 117" d="M1517.59 7.67C1517.59 8.12532 1517.46 8.57098 1517.21 8.95053C1516.96 9.33008 1516.6 9.62643 1516.18 9.80204C1515.76 9.97766 1515.29 10.0246 1514.85 9.93703C1514.4 9.84942 1513.99 9.63115 1513.67 9.30989C1513.34 8.98863 1513.12 8.57883 1513.03 8.1324C1512.95 7.68598 1512.99 7.22301 1513.16 6.80216C1513.34 6.38131 1513.63 6.0215 1514.01 5.76833C1514.39 5.51516 1514.83 5.38001 1515.29 5.38C1515.9 5.38 1516.48 5.62095 1516.91 6.05012C1517.34 6.47929 1517.59 7.06174 1517.59 7.67Z" fill="white"/>
<path id="Vector 118" d="M1637.01 519.04C1637.71 519.04 1638.28 518.471 1638.28 517.77C1638.28 517.069 1637.71 516.5 1637.01 516.5C1636.31 516.5 1635.74 517.069 1635.74 517.77C1635.74 518.471 1636.31 519.04 1637.01 519.04Z" fill="white"/>
<path id="Vector 119" d="M1718.67 549.42C1719.37 549.42 1719.94 548.851 1719.94 548.15C1719.94 547.449 1719.37 546.88 1718.67 546.88C1717.97 546.88 1717.4 547.449 1717.4 548.15C1717.4 548.851 1717.97 549.42 1718.67 549.42Z" fill="white"/>
<path id="Vector 120" d="M1866.84 358.25C1867.54 358.25 1868.11 357.681 1868.11 356.98C1868.11 356.279 1867.54 355.71 1866.84 355.71C1866.14 355.71 1865.57 356.279 1865.57 356.98C1865.57 357.681 1866.14 358.25 1866.84 358.25Z" fill="white"/>
<path id="Vector 121" d="M1547.35 542.75C1548.05 542.75 1548.62 542.181 1548.62 541.48C1548.62 540.779 1548.05 540.21 1547.35 540.21C1546.65 540.21 1546.08 540.779 1546.08 541.48C1546.08 542.181 1546.65 542.75 1547.35 542.75Z" fill="white"/>
<path id="Vector 122" d="M1161.65 532.22C1162.35 532.22 1162.92 531.651 1162.92 530.95C1162.92 530.249 1162.35 529.68 1161.65 529.68C1160.95 529.68 1160.38 530.249 1160.38 530.95C1160.38 531.651 1160.95 532.22 1161.65 532.22Z" fill="white"/>
<path id="Vector 123" d="M1049.86 681.91C1050.56 681.91 1051.13 681.341 1051.13 680.64C1051.13 679.939 1050.56 679.37 1049.86 679.37C1049.16 679.37 1048.59 679.939 1048.59 680.64C1048.59 681.341 1049.16 681.91 1049.86 681.91Z" fill="white"/>
<path id="Vector 124" d="M1256.37 524.27C1257.07 524.27 1257.64 523.701 1257.64 523C1257.64 522.299 1257.07 521.73 1256.37 521.73C1255.67 521.73 1255.1 522.299 1255.1 523C1255.1 523.701 1255.67 524.27 1256.37 524.27Z" fill="white"/>
<path id="Vector 125" d="M1166.64 696.64C1167.34 696.64 1167.91 696.071 1167.91 695.37C1167.91 694.669 1167.34 694.1 1166.64 694.1C1165.94 694.1 1165.37 694.669 1165.37 695.37C1165.37 696.071 1165.94 696.64 1166.64 696.64Z" fill="white"/>
<path id="Vector 126" d="M1105.45 483.92C1106.72 483.92 1107.75 482.89 1107.75 481.62C1107.75 480.35 1106.72 479.32 1105.45 479.32C1104.18 479.32 1103.15 480.35 1103.15 481.62C1103.15 482.89 1104.18 483.92 1105.45 483.92Z" fill="white"/>
<path id="Vector 127" d="M1085.82 379.92C1085.82 380.375 1085.69 380.82 1085.43 381.198C1085.18 381.576 1084.82 381.871 1084.4 382.045C1083.98 382.219 1083.52 382.265 1083.07 382.176C1082.63 382.087 1082.22 381.868 1081.89 381.546C1081.57 381.225 1081.35 380.815 1081.26 380.369C1081.18 379.923 1081.22 379.46 1081.4 379.04C1081.57 378.62 1081.86 378.26 1082.24 378.008C1082.62 377.755 1083.07 377.62 1083.52 377.62C1084.13 377.62 1084.72 377.862 1085.15 378.294C1085.58 378.725 1085.82 379.31 1085.82 379.92Z" fill="white"/>
<path id="Vector 128" d="M126.58 438.18C126.582 438.635 126.449 439.081 126.197 439.461C125.946 439.84 125.587 440.136 125.167 440.312C124.747 440.488 124.284 440.535 123.837 440.447C123.391 440.359 122.98 440.141 122.657 439.82C122.335 439.499 122.114 439.089 122.025 438.642C121.935 438.196 121.98 437.733 122.154 437.312C122.328 436.891 122.623 436.531 123.001 436.278C123.38 436.025 123.825 435.89 124.28 435.89C124.888 435.89 125.472 436.131 125.903 436.56C126.334 436.989 126.577 437.572 126.58 438.18Z" fill="white"/>
<path id="Vector 129" d="M425.92 505.56C425.92 506.015 425.785 506.46 425.532 506.838C425.28 507.216 424.92 507.511 424.5 507.685C424.08 507.859 423.617 507.905 423.171 507.816C422.725 507.727 422.315 507.508 421.994 507.186C421.672 506.865 421.453 506.455 421.364 506.009C421.275 505.563 421.321 505.1 421.495 504.68C421.669 504.26 421.964 503.9 422.342 503.648C422.72 503.395 423.165 503.26 423.62 503.26C424.23 503.26 424.815 503.502 425.246 503.934C425.678 504.365 425.92 504.95 425.92 505.56Z" fill="white"/>
<path id="Vector 130" d="M114.89 624.78C114.89 625.235 114.755 625.68 114.502 626.058C114.25 626.436 113.89 626.731 113.47 626.905C113.05 627.079 112.587 627.125 112.141 627.036C111.695 626.947 111.285 626.728 110.964 626.406C110.642 626.085 110.423 625.675 110.334 625.229C110.245 624.783 110.291 624.32 110.465 623.9C110.639 623.48 110.934 623.12 111.312 622.868C111.69 622.615 112.135 622.48 112.59 622.48C113.2 622.48 113.785 622.722 114.216 623.154C114.648 623.585 114.89 624.17 114.89 624.78Z" fill="white"/>
<path id="Vector 131" d="M56.3 737.22C56.3 737.675 56.1651 738.12 55.9123 738.498C55.6596 738.876 55.3004 739.171 54.8801 739.345C54.4599 739.519 53.9974 739.565 53.5512 739.476C53.1051 739.387 52.6953 739.168 52.3736 738.846C52.0519 738.525 51.8329 738.115 51.7441 737.669C51.6554 737.222 51.7009 736.76 51.875 736.34C52.0491 735.92 52.3439 735.56 52.7221 735.308C53.1004 735.055 53.5451 734.92 54 734.92C54.61 734.92 55.195 735.162 55.6263 735.594C56.0576 736.025 56.3 736.61 56.3 737.22Z" fill="white"/>
<path id="Vector 132" d="M159.55 653.1C160.251 653.1 160.82 652.531 160.82 651.83C160.82 651.129 160.251 650.56 159.55 650.56C158.849 650.56 158.28 651.129 158.28 651.83C158.28 652.531 158.849 653.1 159.55 653.1Z" fill="white"/>
<path id="Vector 133" d="M229.52 610.74C230.221 610.74 230.79 610.171 230.79 609.47C230.79 608.769 230.221 608.2 229.52 608.2C228.819 608.2 228.25 608.769 228.25 609.47C228.25 610.171 228.819 610.74 229.52 610.74Z" fill="white"/>
<path id="Vector 134" d="M362.08 511.89C362.781 511.89 363.35 511.321 363.35 510.62C363.35 509.919 362.781 509.35 362.08 509.35C361.379 509.35 360.81 509.919 360.81 510.62C360.81 511.321 361.379 511.89 362.08 511.89Z" fill="white"/>
<path id="Vector 135" d="M339.05 436.85C339.751 436.85 340.32 436.281 340.32 435.58C340.32 434.879 339.751 434.31 339.05 434.31C338.349 434.31 337.78 434.879 337.78 435.58C337.78 436.281 338.349 436.85 339.05 436.85Z" fill="white"/>
<path id="Vector 136" d="M222.23 693.38C222.931 693.38 223.5 692.811 223.5 692.11C223.5 691.409 222.931 690.84 222.23 690.84C221.529 690.84 220.96 691.409 220.96 692.11C220.96 692.811 221.529 693.38 222.23 693.38Z" fill="white"/>
<path id="Vector 137" d="M180.22 819.49C180.921 819.49 181.49 818.921 181.49 818.22C181.49 817.519 180.921 816.95 180.22 816.95C179.519 816.95 178.95 817.519 178.95 818.22C178.95 818.921 179.519 819.49 180.22 819.49Z" fill="white"/>
<path id="Vector 138" d="M331.07 749.97C331.771 749.97 332.34 749.401 332.34 748.7C332.34 747.999 331.771 747.43 331.07 747.43C330.369 747.43 329.8 747.999 329.8 748.7C329.8 749.401 330.369 749.97 331.07 749.97Z" fill="white"/>
<path id="Vector 139" d="M186.5 622.94C186.664 622.972 186.821 623.037 186.96 623.13C187.1 623.223 187.219 623.342 187.312 623.482C187.405 623.621 187.47 623.778 187.502 623.942C187.534 624.107 187.533 624.276 187.5 624.44C187.467 624.604 187.402 624.76 187.309 624.899C187.216 625.038 187.096 625.158 186.957 625.251C186.818 625.343 186.662 625.408 186.497 625.44C186.333 625.473 186.164 625.473 186 625.44C185.836 625.407 185.68 625.342 185.541 625.249C185.402 625.156 185.282 625.036 185.189 624.897C185.096 624.758 185.032 624.602 184.999 624.437C184.967 624.273 184.967 624.104 185 623.94C185.032 623.775 185.097 623.619 185.19 623.48C185.283 623.34 185.402 623.221 185.542 623.128C185.681 623.035 185.838 622.97 186.002 622.938C186.167 622.906 186.336 622.906 186.5 622.94Z" fill="white"/>
<path id="Vector 140" d="M152.72 810.92C153.421 810.92 153.99 810.351 153.99 809.65C153.99 808.949 153.421 808.38 152.72 808.38C152.019 808.38 151.45 808.949 151.45 809.65C151.45 810.351 152.019 810.92 152.72 810.92Z" fill="white"/>
<path id="Vector 141" d="M108.47 516.78C109.171 516.78 109.74 516.211 109.74 515.51C109.74 514.809 109.171 514.24 108.47 514.24C107.769 514.24 107.2 514.809 107.2 515.51C107.2 516.211 107.769 516.78 108.47 516.78Z" fill="white"/>
<path id="Vector 142" d="M190.13 547.17C190.831 547.17 191.4 546.601 191.4 545.9C191.4 545.199 190.831 544.63 190.13 544.63C189.429 544.63 188.86 545.199 188.86 545.9C188.86 546.601 189.429 547.17 190.13 547.17Z" fill="white"/>
<path id="Vector 143" d="M377.95 412.91C378.651 412.91 379.22 412.341 379.22 411.64C379.22 410.939 378.651 410.37 377.95 410.37C377.249 410.37 376.68 410.939 376.68 411.64C376.68 412.341 377.249 412.91 377.95 412.91Z" fill="white"/>
<path id="Vector 144" d="M1714.39 707C1714.39 707.455 1714.26 707.901 1714.01 708.28C1713.76 708.66 1713.4 708.956 1712.98 709.132C1712.56 709.308 1712.09 709.355 1711.65 709.267C1711.2 709.179 1710.79 708.961 1710.47 708.64C1710.14 708.319 1709.92 707.909 1709.83 707.462C1709.75 707.016 1709.79 706.553 1709.96 706.132C1710.14 705.711 1710.43 705.351 1710.81 705.098C1711.19 704.845 1711.63 704.71 1712.09 704.71C1712.7 704.71 1713.28 704.951 1713.71 705.38C1714.14 705.809 1714.39 706.392 1714.39 707Z" fill="white"/>
<path id="Vector 145" d="M1549.12 694.55C1549.12 695.005 1548.99 695.45 1548.73 695.828C1548.48 696.206 1548.12 696.501 1547.7 696.675C1547.28 696.849 1546.82 696.895 1546.37 696.806C1545.93 696.717 1545.52 696.498 1545.19 696.176C1544.87 695.855 1544.65 695.445 1544.56 694.999C1544.48 694.553 1544.52 694.09 1544.7 693.67C1544.87 693.25 1545.16 692.89 1545.54 692.638C1545.92 692.385 1546.37 692.25 1546.82 692.25C1547.12 692.249 1547.42 692.307 1547.7 692.422C1547.98 692.538 1548.24 692.707 1548.45 692.921C1548.66 693.135 1548.83 693.389 1548.95 693.668C1549.06 693.948 1549.12 694.248 1549.12 694.55Z" fill="white"/>
<path id="Vector 146" d="M1578.42 773C1578.42 773.455 1578.29 773.9 1578.03 774.278C1577.78 774.656 1577.42 774.951 1577 775.125C1576.58 775.299 1576.12 775.344 1575.67 775.256C1575.23 775.167 1574.82 774.948 1574.49 774.626C1574.17 774.305 1573.95 773.895 1573.86 773.449C1573.78 773.003 1573.82 772.54 1574 772.12C1574.17 771.699 1574.46 771.34 1574.84 771.088C1575.22 770.835 1575.67 770.7 1576.12 770.7C1576.73 770.7 1577.31 770.942 1577.75 771.374C1578.18 771.805 1578.42 772.39 1578.42 773Z" fill="white"/>
<path id="Vector 147" d="M1593.78 722.87C1594.48 722.87 1595.05 722.301 1595.05 721.6C1595.05 720.899 1594.48 720.33 1593.78 720.33C1593.08 720.33 1592.51 720.899 1592.51 721.6C1592.51 722.301 1593.08 722.87 1593.78 722.87Z" fill="white"/>
<path id="Vector 148" d="M220.94 764.53C222.21 764.53 223.24 763.5 223.24 762.23C223.24 760.96 222.21 759.93 220.94 759.93C219.67 759.93 218.64 760.96 218.64 762.23C218.64 763.5 219.67 764.53 220.94 764.53Z" fill="white"/>
<path id="Vector 149" d="M297.26 891.41C297.961 891.41 298.53 890.841 298.53 890.14C298.53 889.439 297.961 888.87 297.26 888.87C296.559 888.87 295.99 889.439 295.99 890.14C295.99 890.841 296.559 891.41 297.26 891.41Z" fill="white"/>
<path id="Vector 150" d="M78.85 917.67C79.5514 917.67 80.12 917.101 80.12 916.4C80.12 915.699 79.5514 915.13 78.85 915.13C78.1486 915.13 77.58 915.699 77.58 916.4C77.58 917.101 78.1486 917.67 78.85 917.67Z" fill="white"/>
<path id="Vector 151" d="M486.81 826.35C486.808 826.601 486.732 826.845 486.591 827.053C486.45 827.26 486.251 827.422 486.019 827.516C485.787 827.611 485.532 827.634 485.286 827.584C485.04 827.534 484.815 827.412 484.638 827.234C484.462 827.056 484.342 826.83 484.294 826.584C484.246 826.338 484.271 826.083 484.368 825.852C484.464 825.62 484.627 825.422 484.835 825.283C485.044 825.144 485.289 825.07 485.54 825.07C485.708 825.07 485.874 825.103 486.028 825.168C486.183 825.232 486.324 825.326 486.442 825.445C486.56 825.564 486.653 825.706 486.716 825.861C486.779 826.016 486.811 826.182 486.81 826.35Z" fill="white"/>
<path id="Vector 152" d="M327.66 854.25C327.906 854.3 328.131 854.422 328.308 854.6C328.484 854.778 328.604 855.004 328.653 855.25C328.701 855.496 328.675 855.751 328.579 855.983C328.482 856.214 328.319 856.412 328.111 856.551C327.902 856.69 327.657 856.764 327.406 856.764C327.155 856.764 326.91 856.69 326.702 856.551C326.493 856.412 326.33 856.214 326.234 855.982C326.137 855.751 326.112 855.496 326.16 855.25C326.192 855.086 326.257 854.929 326.35 854.79C326.443 854.65 326.562 854.531 326.702 854.438C326.841 854.345 326.998 854.28 327.162 854.248C327.327 854.216 327.496 854.216 327.66 854.25Z" fill="white"/>
<path id="Vector 153" d="M172.38 894.01C173.081 894.01 173.65 893.441 173.65 892.74C173.65 892.039 173.081 891.47 172.38 891.47C171.679 891.47 171.11 892.039 171.11 892.74C171.11 893.441 171.679 894.01 172.38 894.01Z" fill="white"/>
<path id="Vector 154" d="M341.51 803.36C342.211 803.36 342.78 802.791 342.78 802.09C342.78 801.389 342.211 800.82 341.51 800.82C340.809 800.82 340.24 801.389 340.24 802.09C340.24 802.791 340.809 803.36 341.51 803.36Z" fill="white"/>
<path id="Vector 155" d="M548.45 890C548.45 890.455 548.315 890.9 548.062 891.279C547.808 891.657 547.449 891.952 547.028 892.126C546.607 892.3 546.144 892.345 545.698 892.255C545.251 892.165 544.841 891.945 544.52 891.623C544.199 891.3 543.981 890.889 543.893 890.443C543.805 889.996 543.852 889.533 544.028 889.113C544.204 888.693 544.5 888.334 544.879 888.083C545.259 887.831 545.705 887.698 546.16 887.7C546.462 887.699 546.761 887.757 547.04 887.873C547.319 887.988 547.573 888.157 547.786 888.371C547.999 888.585 548.167 888.839 548.281 889.119C548.395 889.399 548.453 889.698 548.45 890Z" fill="white"/>
<path id="Vector 156" d="M449.4 836.99C450.101 836.99 450.67 836.421 450.67 835.72C450.67 835.019 450.101 834.45 449.4 834.45C448.699 834.45 448.13 835.019 448.13 835.72C448.13 836.421 448.699 836.99 449.4 836.99Z" fill="white"/>
<path id="Vector 157" d="M510.44 847.38C511.71 847.38 512.74 846.35 512.74 845.08C512.74 843.81 511.71 842.78 510.44 842.78C509.17 842.78 508.14 843.81 508.14 845.08C508.14 846.35 509.17 847.38 510.44 847.38Z" fill="white"/>
<path id="Vector 158" d="M714.58 854.77C714.58 855.225 714.445 855.67 714.192 856.049C713.938 856.427 713.579 856.722 713.158 856.896C712.737 857.07 712.274 857.115 711.828 857.025C711.381 856.935 710.971 856.715 710.65 856.393C710.329 856.07 710.111 855.659 710.023 855.213C709.935 854.766 709.982 854.303 710.158 853.883C710.334 853.463 710.63 853.104 711.009 852.853C711.389 852.601 711.835 852.468 712.29 852.47C712.592 852.469 712.891 852.527 713.17 852.643C713.449 852.758 713.703 852.927 713.916 853.141C714.129 853.355 714.297 853.609 714.411 853.889C714.525 854.169 714.583 854.468 714.58 854.77Z" fill="white"/>
<path id="Vector 159" d="M557.4 873.4C558.101 873.4 558.67 872.831 558.67 872.13C558.67 871.429 558.101 870.86 557.4 870.86C556.699 870.86 556.13 871.429 556.13 872.13C556.13 872.831 556.699 873.4 557.4 873.4Z" fill="white"/>
<path id="Vector 160" d="M1663.75 680.51C1664.45 680.51 1665.02 679.941 1665.02 679.24C1665.02 678.539 1664.45 677.97 1663.75 677.97C1663.05 677.97 1662.48 678.539 1662.48 679.24C1662.48 679.941 1663.05 680.51 1663.75 680.51Z" fill="white"/>
<path id="Vector 161" d="M1634.81 708.89C1635.51 708.89 1636.08 708.321 1636.08 707.62C1636.08 706.919 1635.51 706.35 1634.81 706.35C1634.11 706.35 1633.54 706.919 1633.54 707.62C1633.54 708.321 1634.11 708.89 1634.81 708.89Z" fill="white"/>
<path id="Vector 162" d="M1656.46 763.15C1657.16 763.15 1657.73 762.581 1657.73 761.88C1657.73 761.179 1657.16 760.61 1656.46 760.61C1655.76 760.61 1655.19 761.179 1655.19 761.88C1655.19 762.581 1655.76 763.15 1656.46 763.15Z" fill="white"/>
<path id="Vector 163" d="M1849.89 679.74C1850.59 679.74 1851.16 679.171 1851.16 678.47C1851.16 677.769 1850.59 677.2 1849.89 677.2C1849.19 677.2 1848.62 677.769 1848.62 678.47C1848.62 679.171 1849.19 679.74 1849.89 679.74Z" fill="white"/>
<path id="Vector 164" d="M1740.69 762.83C1741.39 762.83 1741.96 762.261 1741.96 761.56C1741.96 760.859 1741.39 760.29 1740.69 760.29C1739.99 760.29 1739.42 760.859 1739.42 761.56C1739.42 762.261 1739.99 762.83 1740.69 762.83Z" fill="white"/>
<path id="Vector 165" d="M1618.93 730.86C1619.63 730.86 1620.2 730.291 1620.2 729.59C1620.2 728.889 1619.63 728.32 1618.93 728.32C1618.23 728.32 1617.66 728.889 1617.66 729.59C1617.66 730.291 1618.23 730.86 1618.93 730.86Z" fill="white"/>
<path id="Vector 166" d="M1262.47 638.95C1263.17 638.95 1263.74 638.381 1263.74 637.68C1263.74 636.979 1263.17 636.41 1262.47 636.41C1261.77 636.41 1261.2 636.979 1261.2 637.68C1261.2 638.381 1261.77 638.95 1262.47 638.95Z" fill="white"/>
<path id="Vector 167" d="M1620.73 692.71C1620.98 692.76 1621.2 692.882 1621.38 693.06C1621.55 693.238 1621.67 693.464 1621.72 693.71C1621.77 693.956 1621.75 694.211 1621.65 694.443C1621.55 694.674 1621.39 694.872 1621.18 695.011C1620.97 695.15 1620.73 695.224 1620.48 695.224C1620.23 695.224 1619.98 695.15 1619.77 695.011C1619.56 694.872 1619.4 694.674 1619.3 694.442C1619.21 694.211 1619.18 693.956 1619.23 693.71C1619.26 693.545 1619.33 693.389 1619.42 693.25C1619.51 693.11 1619.63 692.991 1619.77 692.898C1619.91 692.805 1620.07 692.74 1620.23 692.708C1620.4 692.676 1620.57 692.676 1620.73 692.71Z" fill="white"/>
<path id="Vector 168" d="M1277.52 602.97C1278.22 602.97 1278.79 602.401 1278.79 601.7C1278.79 600.999 1278.22 600.43 1277.52 600.43C1276.82 600.43 1276.25 600.999 1276.25 601.7C1276.25 602.401 1276.82 602.97 1277.52 602.97Z" fill="white"/>
<path id="Vector 169" d="M1881.87 542.86C1881.87 543.77 1881.6 544.66 1881.09 545.417C1880.59 546.173 1879.87 546.763 1879.03 547.111C1878.19 547.459 1877.26 547.549 1876.37 547.371C1875.48 547.193 1874.66 546.753 1874.01 546.109C1873.37 545.465 1872.93 544.644 1872.76 543.751C1872.58 542.858 1872.67 541.933 1873.02 541.093C1873.37 540.252 1873.96 539.535 1874.72 539.03C1875.48 538.526 1876.37 538.258 1877.28 538.26C1877.88 538.26 1878.48 538.379 1879.04 538.61C1879.6 538.842 1880.1 539.181 1880.53 539.608C1880.96 540.035 1881.29 540.542 1881.52 541.1C1881.75 541.658 1881.87 542.256 1881.87 542.86Z" fill="white"/>
<path id="Vector 170" d="M1844.69 822.91C1845.96 822.91 1846.99 821.88 1846.99 820.61C1846.99 819.34 1845.96 818.31 1844.69 818.31C1843.42 818.31 1842.39 819.34 1842.39 820.61C1842.39 821.88 1843.42 822.91 1844.69 822.91Z" fill="white"/>
<path id="Vector 171" d="M1792.13 779.04C1793.4 779.04 1794.43 778.01 1794.43 776.74C1794.43 775.47 1793.4 774.44 1792.13 774.44C1790.86 774.44 1789.83 775.47 1789.83 776.74C1789.83 778.01 1790.86 779.04 1792.13 779.04Z" fill="white"/>
<path id="Vector 172" d="M1354.13 653.25C1354.83 653.25 1355.4 652.681 1355.4 651.98C1355.4 651.279 1354.83 650.71 1354.13 650.71C1353.43 650.71 1352.86 651.279 1352.86 651.98C1352.86 652.681 1353.43 653.25 1354.13 653.25Z" fill="white"/>
<path id="Vector 173" d="M1331.1 578.21C1331.8 578.21 1332.37 577.641 1332.37 576.94C1332.37 576.239 1331.8 575.67 1331.1 575.67C1330.4 575.67 1329.83 576.239 1329.83 576.94C1329.83 577.641 1330.4 578.21 1331.1 578.21Z" fill="white"/>
<path id="Vector 174" d="M1679.43 831.99C1680.13 831.99 1680.7 831.421 1680.7 830.72C1680.7 830.019 1680.13 829.45 1679.43 829.45C1678.73 829.45 1678.16 830.019 1678.16 830.72C1678.16 831.421 1678.73 831.99 1679.43 831.99Z" fill="white"/>
<path id="Vector 175" d="M458.52 641.88C458.52 642.335 458.385 642.78 458.132 643.158C457.88 643.536 457.52 643.831 457.1 644.005C456.68 644.179 456.217 644.225 455.771 644.136C455.325 644.047 454.915 643.828 454.594 643.506C454.272 643.185 454.053 642.775 453.964 642.329C453.875 641.883 453.921 641.42 454.095 641C454.269 640.58 454.564 640.22 454.942 639.968C455.32 639.715 455.765 639.58 456.22 639.58C456.83 639.58 457.415 639.822 457.846 640.254C458.278 640.685 458.52 641.27 458.52 641.88Z" fill="white"/>
<path id="Vector 176" d="M405.1 830.93C405.1 831.385 404.965 831.83 404.712 832.208C404.46 832.586 404.1 832.881 403.68 833.055C403.26 833.229 402.797 833.275 402.351 833.186C401.905 833.097 401.495 832.878 401.174 832.556C400.852 832.235 400.633 831.825 400.544 831.379C400.455 830.933 400.501 830.47 400.675 830.05C400.849 829.63 401.144 829.27 401.522 829.018C401.9 828.765 402.345 828.63 402.8 828.63C403.41 828.63 403.995 828.872 404.426 829.304C404.858 829.735 405.1 830.32 405.1 830.93Z" fill="white"/>
<path id="Vector 177" d="M1008.89 708.75C1008.89 709.205 1008.76 709.65 1008.5 710.028C1008.25 710.406 1007.89 710.701 1007.47 710.875C1007.05 711.049 1006.59 711.094 1006.14 711.006C1005.7 710.917 1005.29 710.698 1004.96 710.376C1004.64 710.055 1004.42 709.645 1004.33 709.199C1004.25 708.753 1004.29 708.29 1004.47 707.87C1004.64 707.449 1004.93 707.09 1005.31 706.838C1005.69 706.585 1006.14 706.45 1006.59 706.45C1007.2 706.45 1007.78 706.692 1008.22 707.124C1008.65 707.555 1008.89 708.14 1008.89 708.75Z" fill="white"/>
<path id="Vector 178" d="M501.56 737.01C502.83 737.01 503.86 735.98 503.86 734.71C503.86 733.44 502.83 732.41 501.56 732.41C500.29 732.41 499.26 733.44 499.26 734.71C499.26 735.98 500.29 737.01 501.56 737.01Z" fill="white"/>
<path id="Vector 179" d="M607.1 650.6C607.801 650.6 608.37 650.031 608.37 649.33C608.37 648.629 607.801 648.06 607.1 648.06C606.399 648.06 605.83 648.629 605.83 649.33C605.83 650.031 606.399 650.6 607.1 650.6Z" fill="white"/>
<path id="Vector 180" d="M669.79 690.87C670.491 690.87 671.06 690.301 671.06 689.6C671.06 688.899 670.491 688.33 669.79 688.33C669.089 688.33 668.52 688.899 668.52 689.6C668.52 690.301 669.089 690.87 669.79 690.87Z" fill="white"/>
<path id="Vector 181" d="M627.77 816.98C628.471 816.98 629.04 816.411 629.04 815.71C629.04 815.009 628.471 814.44 627.77 814.44C627.069 814.44 626.5 815.009 626.5 815.71C626.5 816.411 627.069 816.98 627.77 816.98Z" fill="white"/>
<path id="Vector 182" d="M758.79 758.89C759.491 758.89 760.06 758.321 760.06 757.62C760.06 756.919 759.491 756.35 758.79 756.35C758.089 756.35 757.52 756.919 757.52 757.62C757.52 758.321 758.089 758.89 758.79 758.89Z" fill="white"/>
<path id="Vector 183" d="M600.28 808.41C600.981 808.41 601.55 807.841 601.55 807.14C601.55 806.439 600.981 805.87 600.28 805.87C599.579 805.87 599.01 806.439 599.01 807.14C599.01 807.841 599.579 808.41 600.28 808.41Z" fill="white"/>
<g id="stars">
<path id="Vector 184" d="M124.09 235.21C124.09 236.12 123.82 237.009 123.315 237.766C122.809 238.522 122.091 239.112 121.25 239.46C120.41 239.808 119.485 239.899 118.593 239.722C117.7 239.544 116.881 239.106 116.237 238.463C115.594 237.819 115.156 237 114.978 236.107C114.801 235.215 114.892 234.29 115.24 233.45C115.588 232.609 116.178 231.891 116.934 231.385C117.691 230.88 118.58 230.61 119.49 230.61C120.71 230.61 121.88 231.095 122.743 231.957C123.605 232.82 124.09 233.99 124.09 235.21Z" fill="white"/>
<path id="Vector 185" d="M89.25 476.29C89.252 477.2 88.9839 478.091 88.4796 478.848C87.9754 479.606 87.2576 480.197 86.4173 480.547C85.5769 480.897 84.6517 480.989 83.7587 480.813C82.8657 480.636 82.0452 480.199 81.4008 479.556C80.7565 478.913 80.3174 478.094 80.1391 477.201C79.9608 476.309 80.0513 475.383 80.3992 474.542C80.7471 473.701 81.3366 472.982 82.0933 472.476C82.85 471.97 83.7398 471.7 84.65 471.7C85.8682 471.7 87.0368 472.183 87.8991 473.044C88.7615 473.904 89.2473 475.072 89.25 476.29Z" fill="white"/>
<path id="Vector 186" d="M456.66 122.67C456.662 123.58 456.394 124.471 455.89 125.228C455.385 125.986 454.668 126.577 453.827 126.927C452.987 127.277 452.062 127.369 451.169 127.193C450.276 127.016 449.455 126.579 448.811 125.936C448.166 125.293 447.727 124.474 447.549 123.581C447.371 122.688 447.461 121.763 447.809 120.922C448.157 120.081 448.747 119.362 449.503 118.856C450.26 118.35 451.15 118.08 452.06 118.08C453.278 118.08 454.447 118.563 455.309 119.424C456.172 120.284 456.657 121.452 456.66 122.67Z" fill="white"/>
<path id="Vector 187" d="M697.61 370.22C697.61 371.13 697.34 372.019 696.835 372.776C696.329 373.532 695.611 374.122 694.77 374.47C693.93 374.818 693.005 374.909 692.113 374.732C691.22 374.554 690.401 374.116 689.757 373.473C689.114 372.829 688.676 372.01 688.498 371.117C688.321 370.225 688.412 369.3 688.76 368.46C689.108 367.619 689.698 366.901 690.454 366.395C691.211 365.89 692.1 365.62 693.01 365.62C694.23 365.62 695.4 366.105 696.263 366.967C697.125 367.83 697.61 369 697.61 370.22Z" fill="white"/>
<path id="Vector 188" d="M588.75 389.62C588.75 390.53 588.48 391.419 587.975 392.176C587.469 392.932 586.751 393.522 585.91 393.87C585.07 394.218 584.145 394.309 583.253 394.132C582.36 393.954 581.541 393.516 580.897 392.873C580.254 392.229 579.816 391.41 579.638 390.517C579.461 389.625 579.552 388.7 579.9 387.86C580.248 387.019 580.838 386.301 581.594 385.795C582.351 385.29 583.24 385.02 584.15 385.02C585.37 385.02 586.54 385.505 587.403 386.367C588.265 387.23 588.75 388.4 588.75 389.62Z" fill="white"/>
<path id="Vector 189" d="M420.87 575.63C420.87 576.54 420.6 577.429 420.095 578.186C419.589 578.942 418.871 579.532 418.03 579.88C417.19 580.228 416.265 580.319 415.373 580.142C414.48 579.964 413.661 579.526 413.017 578.883C412.374 578.239 411.936 577.42 411.758 576.527C411.581 575.635 411.672 574.71 412.02 573.87C412.368 573.029 412.958 572.311 413.714 571.805C414.471 571.3 415.36 571.03 416.27 571.03C416.874 571.03 417.472 571.149 418.03 571.38C418.588 571.611 419.095 571.95 419.523 572.377C419.95 572.804 420.289 573.312 420.52 573.87C420.751 574.428 420.87 575.026 420.87 575.63Z" fill="white"/>
<path id="Vector 190" d="M1026.56 122.67C1026.56 123.58 1026.29 124.471 1025.79 125.228C1025.29 125.986 1024.57 126.577 1023.73 126.927C1022.89 127.277 1021.96 127.369 1021.07 127.193C1020.18 127.016 1019.36 126.579 1018.71 125.936C1018.07 125.293 1017.63 124.474 1017.45 123.581C1017.27 122.688 1017.36 121.763 1017.71 120.922C1018.06 120.081 1018.65 119.362 1019.4 118.856C1020.16 118.35 1021.05 118.08 1021.96 118.08C1023.18 118.08 1024.35 118.563 1025.21 119.424C1026.07 120.284 1026.56 121.452 1026.56 122.67Z" fill="white"/>
<path id="Vector 191" d="M1632.82 128.48C1632.66 129.377 1632.24 130.207 1631.62 130.865C1630.99 131.524 1630.18 131.981 1629.29 132.179C1628.4 132.377 1627.47 132.308 1626.63 131.978C1625.78 131.649 1625.04 131.076 1624.52 130.33C1624 129.585 1623.71 128.701 1623.69 127.791C1623.67 126.881 1623.92 125.986 1624.41 125.218C1624.9 124.45 1625.6 123.845 1626.44 123.479C1627.27 123.112 1628.19 123.001 1629.09 123.16C1630.29 123.372 1631.36 124.052 1632.05 125.049C1632.75 126.046 1633.03 127.28 1632.82 128.48Z" fill="white"/>
<path id="Vector 192" d="M1654.06 33.61C1654.06 34.5198 1653.79 35.4092 1653.28 36.1656C1652.78 36.9221 1652.06 37.5117 1651.22 37.8599C1650.38 38.208 1649.45 38.2991 1648.56 38.1216C1647.67 37.9441 1646.85 37.506 1646.21 36.8627C1645.56 36.2194 1645.13 35.3997 1644.95 34.5074C1644.77 33.6151 1644.86 32.6902 1645.21 31.8497C1645.56 31.0091 1646.15 30.2907 1646.9 29.7852C1647.66 29.2798 1648.55 29.01 1649.46 29.01C1650.68 29.01 1651.85 29.4947 1652.71 30.3573C1653.58 31.22 1654.06 32.39 1654.06 33.61Z" fill="white"/>
<path id="Vector 193" d="M1667.68 383C1667.68 383.91 1667.41 384.8 1666.9 385.557C1666.4 386.313 1665.68 386.903 1664.84 387.251C1664 387.599 1663.07 387.689 1662.18 387.511C1661.29 387.333 1660.47 386.893 1659.82 386.249C1659.18 385.605 1658.74 384.784 1658.57 383.891C1658.39 382.998 1658.48 382.073 1658.83 381.233C1659.18 380.392 1659.77 379.675 1660.53 379.17C1661.29 378.666 1662.18 378.398 1663.09 378.4C1663.69 378.4 1664.29 378.519 1664.85 378.75C1665.41 378.982 1665.91 379.321 1666.34 379.748C1666.77 380.175 1667.1 380.682 1667.33 381.24C1667.56 381.798 1667.68 382.396 1667.68 383Z" fill="white"/>
<path id="Vector 194" d="M1205.74 447.48C1205.74 448.39 1205.47 449.28 1204.96 450.037C1204.46 450.793 1203.74 451.383 1202.9 451.731C1202.06 452.079 1201.13 452.169 1200.24 451.991C1199.35 451.813 1198.53 451.373 1197.88 450.729C1197.24 450.085 1196.8 449.264 1196.63 448.371C1196.45 447.478 1196.54 446.553 1196.89 445.713C1197.24 444.872 1197.83 444.155 1198.59 443.65C1199.35 443.146 1200.24 442.878 1201.15 442.88C1201.75 442.88 1202.35 442.999 1202.91 443.23C1203.47 443.462 1203.97 443.801 1204.4 444.228C1204.83 444.655 1205.16 445.162 1205.39 445.72C1205.62 446.278 1205.74 446.876 1205.74 447.48Z" fill="white"/>
<path id="Vector 195" d="M841.9 498C841.9 498.91 841.63 499.799 841.125 500.556C840.619 501.312 839.901 501.902 839.06 502.25C838.22 502.598 837.295 502.689 836.403 502.512C835.51 502.334 834.691 501.896 834.047 501.253C833.404 500.609 832.966 499.79 832.788 498.897C832.611 498.005 832.702 497.08 833.05 496.24C833.398 495.399 833.988 494.681 834.744 494.175C835.501 493.67 836.39 493.4 837.3 493.4C837.904 493.4 838.502 493.519 839.06 493.75C839.619 493.981 840.126 494.32 840.553 494.747C840.98 495.174 841.319 495.682 841.55 496.24C841.781 496.798 841.9 497.396 841.9 498Z" fill="white"/>
<path id="Vector 196" d="M1027.37 513.28C1027.37 514.19 1027.1 515.08 1026.59 515.837C1026.09 516.593 1025.37 517.183 1024.53 517.531C1023.69 517.879 1022.76 517.969 1021.87 517.791C1020.98 517.613 1020.16 517.173 1019.51 516.529C1018.87 515.885 1018.43 515.064 1018.26 514.171C1018.08 513.278 1018.17 512.353 1018.52 511.513C1018.87 510.672 1019.46 509.955 1020.22 509.45C1020.98 508.946 1021.87 508.678 1022.78 508.68C1023.38 508.68 1023.98 508.799 1024.54 509.03C1025.1 509.262 1025.6 509.601 1026.03 510.028C1026.46 510.455 1026.79 510.962 1027.02 511.52C1027.25 512.078 1027.37 512.676 1027.37 513.28Z" fill="white"/>
<path id="Vector 197" d="M838.69 583.92C838.69 584.83 838.42 585.719 837.915 586.476C837.409 587.232 836.691 587.822 835.85 588.17C835.01 588.518 834.085 588.609 833.193 588.432C832.3 588.254 831.481 587.816 830.837 587.173C830.194 586.529 829.756 585.71 829.578 584.817C829.401 583.925 829.492 583 829.84 582.16C830.188 581.319 830.778 580.601 831.534 580.095C832.291 579.59 833.18 579.32 834.09 579.32C835.31 579.32 836.48 579.805 837.343 580.667C838.205 581.53 838.69 582.7 838.69 583.92Z" fill="white"/>
<path id="Vector 198" d="M983.73 607.85C983.73 608.76 983.46 609.649 982.955 610.406C982.449 611.162 981.731 611.752 980.89 612.1C980.05 612.448 979.125 612.539 978.233 612.362C977.34 612.184 976.521 611.746 975.877 611.103C975.234 610.459 974.796 609.64 974.618 608.747C974.441 607.855 974.532 606.93 974.88 606.09C975.228 605.249 975.818 604.531 976.574 604.025C977.331 603.52 978.22 603.25 979.13 603.25C980.35 603.25 981.52 603.735 982.383 604.597C983.245 605.46 983.73 606.63 983.73 607.85Z" fill="white"/>
<path id="Vector 199" d="M758.48 421.14C758.48 422.05 758.21 422.939 757.705 423.696C757.199 424.452 756.481 425.042 755.64 425.39C754.8 425.738 753.875 425.829 752.983 425.652C752.09 425.474 751.271 425.036 750.627 424.393C749.984 423.749 749.546 422.93 749.368 422.037C749.191 421.145 749.282 420.22 749.63 419.38C749.978 418.539 750.568 417.821 751.324 417.315C752.081 416.81 752.97 416.54 753.88 416.54C754.484 416.54 755.082 416.659 755.64 416.89C756.198 417.121 756.706 417.46 757.133 417.887C757.56 418.314 757.899 418.822 758.13 419.38C758.361 419.938 758.48 420.536 758.48 421.14Z" fill="white"/>
<path id="Vector 200" d="M1588.8 202.76C1588.8 203.67 1588.53 204.559 1588.02 205.316C1587.52 206.072 1586.8 206.662 1585.96 207.01C1585.12 207.358 1584.19 207.449 1583.3 207.272C1582.41 207.094 1581.59 206.656 1580.95 206.013C1580.3 205.369 1579.87 204.55 1579.69 203.657C1579.51 202.765 1579.6 201.84 1579.95 201C1580.3 200.159 1580.89 199.441 1581.64 198.935C1582.4 198.43 1583.29 198.16 1584.2 198.16C1584.8 198.159 1585.4 198.277 1585.96 198.507C1586.52 198.738 1587.03 199.077 1587.46 199.504C1587.88 199.932 1588.22 200.439 1588.45 200.998C1588.68 201.557 1588.8 202.156 1588.8 202.76Z" fill="white"/>
<path id="Vector 201" d="M1895.38 77.86C1895.38 78.7698 1895.11 79.6592 1894.6 80.4156C1894.1 81.1721 1893.38 81.7617 1892.54 82.1099C1891.7 82.458 1890.77 82.5491 1889.88 82.3716C1888.99 82.1941 1888.17 81.756 1887.53 81.1127C1886.88 80.4694 1886.45 79.6497 1886.27 78.7574C1886.09 77.8651 1886.18 76.9402 1886.53 76.0997C1886.88 75.2591 1887.47 74.5407 1888.22 74.0352C1888.98 73.5298 1889.87 73.26 1890.78 73.26C1892 73.26 1893.17 73.7446 1894.03 74.6073C1894.9 75.47 1895.38 76.64 1895.38 77.86Z" fill="white"/>
<path id="Vector 202" d="M1358.31 316.32C1358.31 317.23 1358.04 318.12 1357.53 318.877C1357.03 319.633 1356.31 320.223 1355.47 320.571C1354.63 320.919 1353.7 321.009 1352.81 320.831C1351.92 320.653 1351.1 320.213 1350.45 319.569C1349.81 318.925 1349.37 318.104 1349.2 317.211C1349.02 316.318 1349.11 315.393 1349.46 314.553C1349.81 313.712 1350.4 312.995 1351.16 312.49C1351.92 311.986 1352.81 311.718 1353.72 311.72C1354.94 311.723 1356.11 312.208 1356.97 313.071C1357.83 313.933 1358.31 315.102 1358.31 316.32Z" fill="white"/>
<path id="Vector 203" d="M1172.48 741.71C1172.48 742.621 1172.21 743.511 1171.71 744.269C1171.2 745.027 1170.49 745.619 1169.64 745.968C1168.8 746.317 1167.88 746.409 1166.98 746.232C1166.09 746.055 1165.27 745.617 1164.63 744.973C1163.98 744.329 1163.55 743.508 1163.37 742.615C1163.19 741.722 1163.28 740.796 1163.63 739.955C1163.98 739.114 1164.57 738.396 1165.33 737.891C1166.09 737.386 1166.98 737.118 1167.89 737.12C1169.11 737.123 1170.27 737.607 1171.13 738.467C1171.99 739.328 1172.48 740.494 1172.48 741.71Z" fill="white"/>
<path id="Vector 204" d="M323.91 472C323.912 472.91 323.644 473.801 323.14 474.558C322.635 475.316 321.918 475.907 321.077 476.257C320.237 476.607 319.312 476.699 318.419 476.523C317.526 476.346 316.705 475.909 316.061 475.266C315.416 474.623 314.977 473.804 314.799 472.911C314.621 472.018 314.711 471.093 315.059 470.252C315.407 469.411 315.997 468.692 316.753 468.186C317.51 467.68 318.4 467.41 319.31 467.41C320.528 467.41 321.697 467.893 322.559 468.754C323.422 469.614 323.907 470.782 323.91 472Z" fill="white"/>
<path id="Vector 205" d="M1316 613.34C1316 614.25 1315.73 615.139 1315.22 615.896C1314.72 616.652 1314 617.242 1313.16 617.59C1312.32 617.938 1311.39 618.029 1310.5 617.852C1309.61 617.674 1308.79 617.236 1308.15 616.593C1307.5 615.949 1307.07 615.13 1306.89 614.237C1306.71 613.345 1306.8 612.42 1307.15 611.58C1307.5 610.739 1308.09 610.021 1308.84 609.515C1309.6 609.01 1310.49 608.74 1311.4 608.74C1312.62 608.74 1313.79 609.225 1314.65 610.087C1315.52 610.95 1316 612.12 1316 613.34Z" fill="white"/>
<path id="Vector 206" d="M410.46 724C410.46 724.91 410.19 725.799 409.685 726.556C409.179 727.312 408.461 727.902 407.62 728.25C406.78 728.598 405.855 728.689 404.963 728.512C404.07 728.334 403.251 727.896 402.607 727.253C401.964 726.609 401.526 725.79 401.348 724.897C401.171 724.005 401.262 723.08 401.61 722.24C401.958 721.399 402.548 720.681 403.304 720.175C404.061 719.67 404.95 719.4 405.86 719.4C407.08 719.4 408.25 719.885 409.113 720.747C409.975 721.61 410.46 722.78 410.46 724Z" fill="white"/>
<path id="Vector 207" d="M950.65 794.28C950.65 795.19 950.38 796.08 949.874 796.837C949.368 797.593 948.649 798.183 947.808 798.531C946.967 798.879 946.042 798.969 945.149 798.791C944.256 798.613 943.437 798.173 942.794 797.529C942.151 796.885 941.714 796.064 941.537 795.171C941.361 794.278 941.453 793.353 941.803 792.513C942.153 791.672 942.744 790.955 943.502 790.45C944.26 789.946 945.15 789.678 946.06 789.68C946.664 789.68 947.261 789.799 947.819 790.03C948.376 790.262 948.883 790.601 949.309 791.028C949.736 791.455 950.073 791.962 950.304 792.52C950.534 793.078 950.651 793.676 950.65 794.28Z" fill="white"/>
<path id="Vector 208" d="M802.29 750.64C802.29 751.55 802.02 752.439 801.515 753.196C801.009 753.952 800.291 754.542 799.45 754.89C798.61 755.238 797.685 755.329 796.793 755.152C795.9 754.974 795.081 754.536 794.437 753.893C793.794 753.249 793.356 752.43 793.178 751.537C793.001 750.645 793.092 749.72 793.44 748.88C793.788 748.039 794.378 747.321 795.134 746.815C795.891 746.31 796.78 746.04 797.69 746.04C798.294 746.039 798.893 746.157 799.452 746.388C800.011 746.618 800.518 746.957 800.946 747.384C801.373 747.812 801.712 748.319 801.942 748.878C802.173 749.437 802.291 750.036 802.29 750.64Z" fill="white"/>
</g>
<path id="Vector 209" d="M906.07 639.37C906.07 639.825 905.935 640.27 905.682 640.648C905.43 641.026 905.07 641.321 904.65 641.495C904.23 641.669 903.768 641.715 903.321 641.626C902.875 641.537 902.465 641.318 902.144 640.996C901.822 640.675 901.603 640.265 901.514 639.819C901.426 639.373 901.471 638.91 901.645 638.49C901.819 638.07 902.114 637.71 902.492 637.458C902.87 637.205 903.315 637.07 903.77 637.07C904.38 637.07 904.965 637.312 905.396 637.744C905.828 638.175 906.07 638.76 906.07 639.37Z" fill="white"/>
<path id="Vector 210" d="M1137.76 757.89C1137.76 758.345 1137.63 758.79 1137.37 759.168C1137.12 759.546 1136.76 759.841 1136.34 760.015C1135.92 760.189 1135.46 760.235 1135.01 760.146C1134.57 760.057 1134.16 759.838 1133.83 759.516C1133.51 759.195 1133.29 758.785 1133.2 758.339C1133.12 757.893 1133.16 757.43 1133.34 757.01C1133.51 756.59 1133.8 756.23 1134.18 755.978C1134.56 755.725 1135.01 755.59 1135.46 755.59C1136.07 755.59 1136.65 755.832 1137.09 756.264C1137.52 756.695 1137.76 757.28 1137.76 757.89Z" fill="white"/>
<path id="Vector 211" d="M1052.11 1014.8C1052.81 1014.8 1053.38 1014.23 1053.38 1013.53C1053.38 1012.83 1052.81 1012.26 1052.11 1012.26C1051.41 1012.26 1050.84 1012.83 1050.84 1013.53C1050.84 1014.23 1051.41 1014.8 1052.11 1014.8Z" fill="white"/>
<path id="Vector 212" d="M923.1 747.78C923.801 747.78 924.37 747.211 924.37 746.51C924.37 745.809 923.801 745.24 923.1 745.24C922.399 745.24 921.83 745.809 921.83 746.51C921.83 747.211 922.399 747.78 923.1 747.78Z" fill="white"/>
<path id="Vector 213" d="M1009.31 695.16C1010.01 695.16 1010.58 694.591 1010.58 693.89C1010.58 693.189 1010.01 692.62 1009.31 692.62C1008.61 692.62 1008.04 693.189 1008.04 693.89C1008.04 694.591 1008.61 695.16 1009.31 695.16Z" fill="white"/>
<path id="Vector 214" d="M850.36 830.72C851.63 830.72 852.66 829.69 852.66 828.42C852.66 827.15 851.63 826.12 850.36 826.12C849.09 826.12 848.06 827.15 848.06 828.42C848.06 829.69 849.09 830.72 850.36 830.72Z" fill="white"/>
<path id="Vector 215" d="M819.22 868.84C819.22 869.295 819.085 869.74 818.832 870.118C818.58 870.496 818.22 870.791 817.8 870.965C817.38 871.139 816.917 871.185 816.471 871.096C816.025 871.007 815.615 870.788 815.294 870.466C814.972 870.145 814.753 869.735 814.664 869.289C814.575 868.842 814.621 868.38 814.795 867.96C814.969 867.54 815.264 867.18 815.642 866.928C816.02 866.675 816.465 866.54 816.92 866.54C817.53 866.54 818.115 866.782 818.546 867.214C818.978 867.645 819.22 868.23 819.22 868.84Z" fill="white"/>
<path id="Vector 216" d="M704.73 756.38C706 756.38 707.03 755.35 707.03 754.08C707.03 752.81 706 751.78 704.73 751.78C703.46 751.78 702.43 752.81 702.43 754.08C702.43 755.35 703.46 756.38 704.73 756.38Z" fill="white"/>
</g>
</g>
<g id="commet">
<path id="Vector 217" d="M1144.4 217C1145.1 218.45 1072.1 255 1070.65 255.7C1070.31 255.865 1069.93 255.96 1069.55 255.981C1069.17 256.002 1068.79 255.948 1068.43 255.822C1068.07 255.695 1067.74 255.499 1067.46 255.245C1067.18 254.991 1066.94 254.683 1066.78 254.34C1066.62 253.997 1066.52 253.624 1066.5 253.244C1066.48 252.863 1066.53 252.483 1066.66 252.123C1066.78 251.764 1066.98 251.433 1067.23 251.149C1067.49 250.866 1067.8 250.635 1068.14 250.47C1069.58 249.78 1143.71 215.56 1144.4 217Z" fill="url(#paint1_linear)"/>
<path id="Vector 218" d="M1587 -63.4C1587.7 -61.95 1437.82 10.33 1436.38 11.03C1435.69 11.3252 1434.91 11.3429 1434.21 11.0796C1433.51 10.8162 1432.94 10.2919 1432.61 9.6162C1432.29 8.94048 1432.24 8.16538 1432.47 7.45254C1432.7 6.73969 1433.2 6.14413 1433.86 5.79C1435.3 5.1 1586.3 -64.84 1587 -63.4Z" fill="url(#paint2_linear)"/>
<path id="Vector 219" d="M1124.4 -26C1125.1 -24.55 1052.1 12 1050.65 12.7C1050.31 12.8648 1049.93 12.9604 1049.55 12.9812C1049.17 13.0021 1048.79 12.9478 1048.43 12.8215C1048.07 12.6952 1047.74 12.4994 1047.46 12.2452C1047.18 11.991 1046.94 11.6834 1046.78 11.34C1046.62 10.9966 1046.52 10.6241 1046.5 10.2438C1046.48 9.86344 1046.53 9.48272 1046.66 9.12335C1046.78 8.76399 1046.98 8.43302 1047.23 8.14934C1047.49 7.86566 1047.8 7.63483 1048.14 7.47002C1049.58 6.78002 1123.71 -27.44 1124.4 -26Z" fill="url(#paint3_linear)"/>
<path id="Vector 220" d="M1469.86 396C1470.56 397.44 1423.5 426.77 1422.05 427.47C1421.36 427.804 1420.56 427.849 1419.83 427.595C1419.11 427.341 1418.51 426.809 1418.18 426.115C1417.84 425.421 1417.8 424.624 1418.05 423.897C1418.3 423.17 1418.84 422.574 1419.53 422.24C1421 421.57 1469.16 394.58 1469.86 396Z" fill="url(#paint4_linear)"/>
</g>
</g>
<defs>
<radialGradient id="paint0_radial" cx="0" cy="0" r="1" gradientUnits="userSpaceOnUse" gradientTransform="translate(921.155 1158.27) scale(1396.74 1458.41)">
<stop stop-color="#942F36"/>
<stop offset="0.130208" stop-color="#7E2736"/>
<stop offset="0.177083" stop-color="#7D2438"/>
<stop offset="0.239583" stop-color="#661B32"/>
<stop offset="0.338542" stop-color="#531431"/>
<stop offset="0.447917" stop-color="#42122F"/>
<stop offset="0.541667" stop-color="#3F1032"/>
<stop offset="0.630208" stop-color="#3A0E31"/>
<stop offset="1" stop-color="#201346"/>
</radialGradient>
<linearGradient id="paint1_linear" x1="1061.72" y1="256.262" x2="1139.24" y2="219.226" gradientUnits="userSpaceOnUse">
<stop stop-color="white"/>
<stop offset="0.11" stop-color="white" stop-opacity="0.79"/>
<stop offset="0.24" stop-color="white" stop-opacity="0.58"/>
<stop offset="0.37" stop-color="white" stop-opacity="0.4"/>
<stop offset="0.5" stop-color="white" stop-opacity="0.26"/>
<stop offset="0.63" stop-color="white" stop-opacity="0.14"/>
<stop offset="0.75" stop-color="white" stop-opacity="0.06"/>
<stop offset="0.88" stop-color="white" stop-opacity="0.02"/>
<stop offset="1" stop-color="white" stop-opacity="0"/>
</linearGradient>
<linearGradient id="paint2_linear" x1="204144" y1="78956.9" x2="230574" y2="78956.9" gradientUnits="userSpaceOnUse">
<stop stop-color="white"/>
<stop offset="0.11" stop-color="white" stop-opacity="0.79"/>
<stop offset="0.24" stop-color="white" stop-opacity="0.58"/>
<stop offset="0.37" stop-color="white" stop-opacity="0.4"/>
<stop offset="0.5" stop-color="white" stop-opacity="0.26"/>
<stop offset="0.63" stop-color="white" stop-opacity="0.14"/>
<stop offset="0.75" stop-color="white" stop-opacity="0.06"/>
<stop offset="0.88" stop-color="white" stop-opacity="0.02"/>
<stop offset="1" stop-color="white" stop-opacity="0"/>
</linearGradient>
<linearGradient id="paint3_linear" x1="1041.72" y1="13.2616" x2="1119.24" y2="-23.7743" gradientUnits="userSpaceOnUse">
<stop stop-color="white"/>
<stop offset="0.11" stop-color="white" stop-opacity="0.79"/>
<stop offset="0.24" stop-color="white" stop-opacity="0.58"/>
<stop offset="0.37" stop-color="white" stop-opacity="0.4"/>
<stop offset="0.5" stop-color="white" stop-opacity="0.26"/>
<stop offset="0.63" stop-color="white" stop-opacity="0.14"/>
<stop offset="0.75" stop-color="white" stop-opacity="0.06"/>
<stop offset="0.88" stop-color="white" stop-opacity="0.02"/>
<stop offset="1" stop-color="white" stop-opacity="0"/>
</linearGradient>
<linearGradient id="paint4_linear" x1="59486.2" y1="45760" x2="62585.3" y2="45760" gradientUnits="userSpaceOnUse">
<stop stop-color="white"/>
<stop offset="0.11" stop-color="white" stop-opacity="0.79"/>
<stop offset="0.24" stop-color="white" stop-opacity="0.58"/>
<stop offset="0.37" stop-color="white" stop-opacity="0.4"/>
<stop offset="0.5" stop-color="white" stop-opacity="0.26"/>
<stop offset="0.63" stop-color="white" stop-opacity="0.14"/>
<stop offset="0.75" stop-color="white" stop-opacity="0.06"/>
<stop offset="0.88" stop-color="white" stop-opacity="0.02"/>
<stop offset="1" stop-color="white" stop-opacity="0"/>
</linearGradient>
<style type="text/css"><![CDATA[
      #mountain{
          animation-name: mount;
          animation-duration: 3s;
          animation-iteration-count: infinite;
          animation-direction:alternate;
          animation-timing-function: linear;
          animation-delay: both;
      }
      @keyframes mount{
          from{transform: translateX(-100px);}
          to{transform: translateX(100px);}
      }
      g#commet>path{
          fill:white;
          animation-name: commet;
          animation-duration: 4s;
          animation-iteration-count: infinite;
          animation-timing-function: linear;
          animation-delay: both;
          transform: rotateX(200deg);
      }
      @keyframes commet{
          from{
            transform: translate(10vw,-10vw);
            
            opacity: 100;
          }
          to{
            transform: translate(-70vw,70vw);
            opacity: 0;
            }
            }
          g#stars>path{
            animation-name: stars;
            animation-duration: 1s;
            animation-iteration-count: infinite;
            animation-timing-function: linear;
            animation-delay: both;
            animation-direction: alternate;
            }
         @keyframes stars{
             from{
                 opacity: 0;
                 }
             to {
                 opacity: 100;
                 
             }
         }
      }
    ]]></style>
</defs>
</svg>
