<svg id="Layer_1" data-name="Layer 1" xmlns="http://www.w3.org/2000/svg" viewBox="0 0 1000 1000"><defs><style>.cls-1{fill:#fff;}.cls-2{fill:none;stroke:#fff;stroke-miterlimit:10;stroke-width:42px;}</style></defs><path class="cls-1" d="M366.81,251.25,320.74,383.31v95.07h-34.4V383.31L240.27,251.25h36.66l26.61,86.64,27.25-86.64Z"/><path class="cls-1" d="M442.73,428.09h-37l-7.46,50.29H363.89l37.64-227.13H447.6l37.64,227.13h-35ZM438.19,395l-13.95-95.07L410.29,395Z"/><path class="cls-1" d="M527.42,474.49a50.08,50.08,0,0,1-19.63-19.79q-7-12.66-7-28.88v-8.11l33.1-3.57v8.43q0,12.35,5.84,19.47T556,449.18q10,0,16.06-5.84t6-15.9a39,39,0,0,0-6.33-21.09q-6.33-10.05-25.15-27.9-25.3-24-34.55-39.91a67.79,67.79,0,0,1-9.25-34.72q0-25.63,14-40.72T555,248q24.33,0,38.29,15.25t14,40.88V310l-33.1,3.57v-6.49q0-13-4.86-19.79t-14-6.81q-9.09,0-14,5.51T536.5,302.2A37,37,0,0,0,543,322.8q6.5,9.9,25,28.39,25.31,25.31,34.55,40.72a64.65,64.65,0,0,1,9.25,33.91q0,16.23-7,28.88a50.08,50.08,0,0,1-19.63,19.79,62,62,0,0,1-57.75,0Z"/><path class="cls-1" d="M637.73,478.38V251.25h34.4V347H713V251.25h34.4V478.38H713v-99H672.13v99Z"/><path class="cls-1" d="M257.79,518.62h53.86q24.66,0,39.26,14.76t14.6,39.42V691.56q0,24.66-14.6,39.42t-39.26,14.76H257.79ZM310,713.3q10.05,0,15.57-5.52t5.52-15.57V572.15q0-10-5.52-15.57T310,551.06H292.18V713.3Z"/><path class="cls-1" d="M396.66,518.62h97.66v32.44H431.05v63.27h50.29v32.45H431.05V713.3h63.27v32.44H396.66Z"/><path class="cls-1" d="M520,518.62h97.66v32.44H554.35v63.27h50.29v32.45H554.35V713.3h63.27v32.44H520Z"/><path class="cls-1" d="M643.25,518.62h53.86q24.66,0,39.27,14.76T751,572.8v26.61q0,24.66-14.6,39.42t-39.27,14.76H677.65v92.15h-34.4Zm52.24,102.53q10.05,0,15.58-5.52t5.51-15.57V572.15q0-10-5.51-15.57t-15.58-5.52H677.65v70.09Z"/><rect class="cls-2" x="205.57" y="205.89" width="588.21" height="588.21"/></svg>