<svg id="Layer_1" data-name="Layer 1" xmlns="http://www.w3.org/2000/svg" viewBox="0 0 1000 1000"><defs><style>.cls-1{fill:#f1f2f2;}.cls-2{fill:none;stroke:#f1f2f2;stroke-miterlimit:10;stroke-width:42px;}</style></defs><path class="cls-1" d="M289.15,106.22,216.21,315.28v150.5H161.77V315.28L88.83,106.22h58L189,243.37l43.15-137.15Z"/><path class="cls-1" d="M409.34,386.16H350.79L339,465.78H284.53l59.58-359.56h72.94l59.58,359.56H421.16Zm-7.19-52.39-22.08-150.5L358,333.77Z"/><path class="cls-1" d="M543.41,459.61a79.11,79.11,0,0,1-31.08-31.33q-11.06-20-11-45.71V369.73l52.39-5.65v13.35q0,19.53,9.24,30.82t25.69,11.3q15.92,0,25.42-9.25t9.51-25.16q0-17.46-10-33.39t-39.81-44.18q-40.07-38-54.7-63.17a107.39,107.39,0,0,1-14.64-55q0-40.56,22.09-64.46t60.61-23.88q38.52,0,60.61,24.14T669.76,190v9.24l-52.39,5.65V194.57q0-20.53-7.7-31.33t-22.09-10.79q-14.39,0-22.09,8.73t-7.7,25.69q0,16.95,10.27,32.61t39.55,45q40.07,40.07,54.71,64.46A102.39,102.39,0,0,1,677,382.57q0,25.68-11.05,45.71a79.17,79.17,0,0,1-31.08,31.33q-20,11.29-45.71,11.31T543.41,459.61Z"/><path class="cls-1" d="M718,465.78V106.22h54.45V257.75h64.72V106.22h54.44V465.78H837.21V309.12H772.49V465.78Z"/><path class="cls-1" d="M116.57,529.47h85.26q39,0,62.15,23.37t23.12,62.41v188q0,39-23.12,62.41T201.83,889H116.57Zm82.69,308.19q15.92,0,24.66-8.73t8.73-24.66v-190q0-15.91-8.73-24.65t-24.66-8.73H171V837.66Z"/><path class="cls-1" d="M336.4,529.47H491v51.37H390.85V681h79.61v51.36H390.85v105.3H491V889H336.4Z"/><path class="cls-1" d="M531.59,529.47H686.2v51.37H586V681h79.61v51.36H586v105.3H686.2V889H531.59Z"/><path class="cls-1" d="M726.78,529.47H812q39,0,62.15,23.37t23.12,62.41v42.12q0,39-23.12,62.41T812,743.15H781.22V889H726.78Zm82.69,162.32q15.91,0,24.66-8.74t8.73-24.65V614.22q0-15.91-8.73-24.65t-24.66-8.73H781.22V691.79Z"/><rect class="cls-2" x="33.9" y="34.41" width="931.17" height="931.17"/></svg>